<?xml version="1.0" encoding="utf-8"?>
<!-- Generator: Adobe Illustrator 21.1.0, SVG Export Plug-In . SVG Version: 6.00 Build 0)  -->
<svg version="1.1" id="Ebene_2" xmlns="http://www.w3.org/2000/svg" xmlns:xlink="http://www.w3.org/1999/xlink" x="0px" y="0px"
	 viewBox="0 0 170 175" style="enable-background:new 0 0 170 175;" xml:space="preserve">
<style type="text/css">
	.st0{fill:#FFFFFF;}
	.st1{fill:#FFCC00;}
	.st2{fill:#FF0000;}
	.st3{fill:#181716;}
</style>
<g id="Hintergrund">
	<polyline class="st0" points="0,0 170,0 170,175 0,175 	"/>
</g>
<g id="Bildwortmarke">
	<polygon class="st1" points="54.5,91.5 56,91.5 56,111.5 52.5,111.5 52.5,91.5 	"/>
	<polygon class="st2" points="54.5,71.5 56,71.5 56,91.5 52.5,91.5 52.5,71.5 	"/>
	<polygon points="56,51.5 56,71.5 54.5,71.5 52.5,71.5 52.5,51.5 	"/>
</g>
<g>
	<path class="st3" d="M27.6,22.6c-0.3-0.2-0.7-0.3-1.1-0.3c-0.8,0-1.3,0.4-1.3,1.1c0,0.7,0.5,0.9,0.9,1.2l1,0.6c1,0.5,1.6,1,1.6,2.1
		c0,1.3-0.9,2.2-2.5,2.2c-1,0-1.8-0.4-1.9-0.5c0-0.3-0.1-1.1-0.1-1.2c0-0.4,0.1-0.6,0.4-0.6c0.1,0,0.2,0,0.3,0.1l0.3,1.2
		c0.2,0.2,0.7,0.4,1.2,0.4c0.9,0,1.4-0.5,1.4-1.2c0-0.7-0.5-1-1.4-1.5l-0.7-0.4c-0.7-0.4-1.4-0.9-1.4-2c0-1.3,1-2,2.4-2
		c1,0,1.5,0.3,1.8,0.4c0,0,0,1,0,1.1c0,0.3-0.1,0.6-0.4,0.6c-0.1,0-0.2,0-0.2,0L27.6,22.6z"/>
	<path class="st3" d="M34.7,28.7l0.8,0.1c0,0,0,0,0,0.1c0,0.2-0.1,0.3-0.4,0.4l-1.5,0.1v-0.7h0c-0.2,0.2-0.7,0.8-1.6,0.8
		c-1.2,0-1.7-0.7-1.7-2v-2.8l-0.8-0.1c0,0,0-0.1,0-0.1c0-0.2,0.1-0.3,0.4-0.3l1.5-0.1v3.5c0,1,0.5,1.2,1,1.2c0.6,0,0.9-0.2,1.2-0.5
		v-3.5l-0.8-0.1c0,0,0-0.1,0-0.1c0-0.2,0.1-0.3,0.4-0.3l1.5-0.1V28.7z"/>
	<path class="st3" d="M37.8,24.7L37.8,24.7c0.3-0.3,0.7-0.8,1.6-0.8c1.2,0,2,0.9,2,2.5c0,2.1-1.2,3-2.8,3c-0.3,0-0.6,0-0.8-0.1v1.6
		l0.6,0.1c0.1,0,0.2,0.1,0.2,0.1c0,0.1-0.1,0.3-0.1,0.3h-2.5c0,0,0-0.1,0-0.1c0-0.2,0.1-0.3,0.3-0.4l0.4-0.1v-6.3L36,24.5
		c0,0,0-0.1,0-0.1c0-0.2,0.1-0.3,0.4-0.3l1.5-0.1L37.8,24.7z M37.9,28.5c0.2,0.1,0.5,0.3,0.9,0.3c1,0,1.6-0.6,1.6-2.2
		c0-1.3-0.6-1.8-1.4-1.8c-0.5,0-0.9,0.2-1.1,0.4V28.5z"/>
	<path class="st3" d="M44.1,24.7L44.1,24.7c0.3-0.3,0.7-0.8,1.6-0.8c1.2,0,2,0.9,2,2.5c0,2.1-1.2,3-2.8,3c-0.3,0-0.6,0-0.8-0.1v1.6
		l0.6,0.1c0.1,0,0.2,0.1,0.2,0.1c0,0.1-0.1,0.3-0.1,0.3h-2.5c0,0,0-0.1,0-0.1c0-0.2,0.1-0.3,0.3-0.4l0.4-0.1v-6.3l-0.8-0.1
		c0,0,0-0.1,0-0.1c0-0.2,0.1-0.3,0.4-0.3l1.5-0.1L44.1,24.7z M44.2,28.5c0.2,0.1,0.5,0.3,0.9,0.3c1,0,1.6-0.6,1.6-2.2
		c0-1.3-0.6-1.8-1.4-1.8c-0.5,0-0.9,0.2-1.1,0.4V28.5z"/>
	<path class="st3" d="M53.9,26.6c0,1.9-1.3,2.8-2.7,2.8c-1.4,0-2.5-0.9-2.5-2.7c0-1.9,1.3-2.8,2.7-2.8
		C52.8,23.9,53.9,24.7,53.9,26.6z M49.9,26.7c0,1.5,0.6,2.1,1.4,2.1c0.8,0,1.4-0.6,1.4-2.1c0-1.5-0.6-2.2-1.4-2.2
		C50.5,24.5,49.9,25.2,49.9,26.7z"/>
	<path class="st3" d="M56.6,24.9L56.6,24.9c0.3-0.4,0.7-1,1.4-1c0.5,0,0.8,0.2,0.8,0.6c0,0.2-0.1,0.5-0.2,0.6
		c-0.1,0-0.4-0.2-0.7-0.2c-0.6,0-0.9,0.2-1.1,0.6v3.3l0.8,0.1c0.1,0,0.2,0.1,0.2,0.1c0,0.1-0.1,0.3-0.1,0.3h-2.7c0,0,0-0.1,0-0.1
		c0-0.2,0.1-0.3,0.3-0.4l0.4-0.1v-4.1l-0.8-0.1c0,0,0-0.1,0-0.1c0-0.2,0.1-0.3,0.4-0.3l1.5-0.1L56.6,24.9z"/>
	<path class="st3" d="M62.5,24.6H61v3.2c0,0.5,0.2,0.9,0.7,0.9c0.4,0,0.8-0.2,0.9-0.3c0.1,0.1,0.1,0.3,0.1,0.4s-0.4,0.6-1.4,0.6
		c-1,0-1.4-0.6-1.4-1.4v-3.4h-0.8c0,0,0-0.1,0-0.1c0-0.2,0.1-0.3,0.3-0.4L60,24l0.3-1.5H61V24h1.6L62.5,24.6z"/>
	<path class="st3" d="M64.5,26.7c0,1.4,0.7,2,1.6,2c0.7,0,1.1-0.3,1.4-0.5c0.1,0.1,0.2,0.3,0.2,0.4c0,0.3-0.7,0.9-1.9,0.9
		c-1.4,0-2.4-0.8-2.4-2.7c0-1.9,1.2-2.9,2.4-2.9c1.2,0,1.9,0.8,1.9,1.9c0,0.3-0.1,0.7-0.1,0.9H64.5z M66.4,26.1
		c0-0.1,0.1-0.3,0.1-0.5c0-0.6-0.2-1.1-0.9-1.1c-0.6,0-1,0.5-1.1,1.6H66.4z"/>
	<path class="st3" d="M73.4,28.7l0.8,0.1c0,0,0,0,0,0.1c0,0.2-0.1,0.3-0.4,0.4l-1.5,0.1v-0.7h0c-0.2,0.3-0.7,0.8-1.6,0.8
		c-1.1,0-2.1-0.7-2.1-2.6c0-2,1.4-3,2.8-3c0.3,0,0.6,0.1,0.8,0.1v-1.9l-0.8-0.1c0,0,0-0.1,0-0.1c0-0.2,0.1-0.3,0.4-0.3l1.5-0.1V28.7
		z M72.3,24.9c-0.2-0.2-0.5-0.3-0.9-0.3c-0.9,0-1.6,0.6-1.6,2.1c0,1.4,0.6,2,1.4,2c0.6,0,1-0.3,1.1-0.5V24.9z"/>
	<path class="st3" d="M78.8,24.6L78.8,24.6c0.3-0.3,0.8-0.7,1.6-0.7c1,0,2,0.7,2,2.6c0,2.1-1.4,3-2.9,3c-1,0-1.6-0.3-1.9-0.4v-7
		l-0.8-0.1c0,0,0-0.1,0-0.1c0-0.2,0.1-0.3,0.4-0.3l1.5-0.1V24.6z M78.8,28.5c0.2,0.1,0.5,0.3,1,0.3c1,0,1.6-0.6,1.6-2.1
		c0-1.5-0.7-1.9-1.4-1.9c-0.5,0-0.9,0.2-1.1,0.5V28.5z"/>
	<path class="st3" d="M88.1,24.6l-1.8,4.8c-0.6,1.7-1.4,2.3-2.3,2.3c-0.5,0-0.7-0.2-0.7-0.6c0-0.2,0.1-0.4,0.2-0.5
		c0.1,0.1,0.3,0.1,0.5,0.1c0.7,0,1.3-0.3,1.6-1.2l-2.1-5l-0.5-0.2c0,0,0-0.1,0-0.1c0-0.2,0.1-0.3,0.3-0.3h2.1c0.1,0,0.1,0,0.1,0.1
		s-0.1,0.2-0.1,0.3l-0.6,0.2l1.3,3.6h0l1.3-3.6l-0.8-0.2c0,0,0-0.1,0-0.1c0-0.2,0.1-0.3,0.3-0.3h1.8c0.1,0,0.1,0,0.1,0.1
		s-0.1,0.2-0.1,0.3L88.1,24.6z"/>
	<path class="st3" d="M90.1,25.2c-0.4,0-0.7-0.3-0.7-0.7c0-0.4,0.3-0.7,0.7-0.7c0.4,0,0.7,0.3,0.7,0.7C90.8,25,90.5,25.2,90.1,25.2z
		 M90.1,29.5c-0.4,0-0.7-0.3-0.7-0.7c0-0.4,0.3-0.7,0.7-0.7c0.4,0,0.7,0.3,0.7,0.7C90.8,29.2,90.5,29.5,90.1,29.5z"/>
</g>
<g>
	<path class="st3" d="M29.2,139c0,1.9-1.3,2.8-2.7,2.8c-1.4,0-2.5-0.9-2.5-2.7c0-1.9,1.3-2.8,2.7-2.8
		C28.1,136.3,29.2,137.1,29.2,139z M25.2,139.1c0,1.5,0.6,2.1,1.4,2.1c0.8,0,1.4-0.6,1.4-2.1s-0.6-2.2-1.4-2.2
		C25.8,136.9,25.2,137.6,25.2,139.1z"/>
	<path class="st3" d="M35.4,141.1l0.6,0.1c0.1,0,0.2,0.1,0.2,0.1c0,0.1-0.1,0.3-0.1,0.3h-2.5c0,0,0-0.1,0-0.1c0-0.2,0.1-0.3,0.3-0.4
		l0.4-0.1v-2.8c0-0.9-0.5-1.2-1.1-1.2c-0.6,0-1,0.3-1.3,0.5v3.5l0.6,0.1c0.1,0,0.2,0.1,0.2,0.1c0,0.1-0.1,0.3-0.1,0.3h-2.5
		c0,0,0-0.1,0-0.1c0-0.2,0.1-0.3,0.3-0.4l0.4-0.1v-4.1l-0.8-0.1c0,0,0-0.1,0-0.1c0-0.2,0.1-0.3,0.4-0.3l1.5-0.1l-0.1,0.8h0
		c0.3-0.3,0.8-0.8,1.8-0.8c1.1,0,1.7,0.7,1.7,1.9V141.1z"/>
	<path class="st3" d="M42.4,137h-1.5v3.2c0,0.5,0.2,0.9,0.7,0.9c0.4,0,0.8-0.2,0.9-0.3c0.1,0.1,0.1,0.3,0.1,0.4s-0.4,0.6-1.4,0.6
		c-1,0-1.4-0.6-1.4-1.4V137H39c0,0,0-0.1,0-0.1c0-0.2,0.1-0.3,0.3-0.4l0.5-0.1l0.3-1.5h0.8v1.5h1.6L42.4,137z"/>
	<path class="st3" d="M44.9,137.1L44.9,137.1c0.2-0.3,0.8-0.8,1.7-0.8c1.1,0,1.7,0.6,1.7,1.9v2.9l0.6,0.1c0.1,0,0.2,0.1,0.2,0.1
		c0,0.1-0.1,0.3-0.1,0.3h-2.5c0,0,0-0.1,0-0.1c0-0.2,0.1-0.3,0.3-0.4l0.4-0.1v-2.8c0-0.9-0.5-1.2-1.1-1.2c-0.7,0-1,0.3-1.3,0.5v3.5
		l0.6,0.1c0.1,0,0.2,0.1,0.2,0.1c0,0.1-0.1,0.3-0.1,0.3H43c0,0,0-0.1,0-0.1c0-0.2,0.1-0.3,0.3-0.4l0.4-0.1v-6.7l-0.8-0.1
		c0,0,0-0.1,0-0.1c0-0.2,0.1-0.3,0.4-0.3l1.5-0.1V137.1z"/>
	<path class="st3" d="M50.9,139.1c0,1.4,0.7,2,1.6,2c0.7,0,1.1-0.3,1.4-0.5c0.1,0.1,0.2,0.3,0.2,0.4c0,0.3-0.7,0.9-1.9,0.9
		c-1.4,0-2.4-0.8-2.4-2.7s1.2-2.9,2.4-2.9c1.2,0,1.9,0.8,1.9,1.9c0,0.3-0.1,0.7-0.1,0.9H50.9z M52.9,138.5c0-0.1,0.1-0.3,0.1-0.5
		c0-0.6-0.2-1.1-0.9-1.1c-0.6,0-1,0.5-1.1,1.6H52.9z"/>
	<path class="st3" d="M58.9,137L58.9,137c0.3-0.3,0.8-0.7,1.6-0.7c1,0,2,0.7,2,2.6c0,2.1-1.4,3-2.9,3c-1,0-1.6-0.3-1.9-0.4v-7
		l-0.8-0.1c0,0,0-0.1,0-0.1c0-0.2,0.1-0.3,0.4-0.3l1.5-0.1V137z M58.9,140.9c0.2,0.1,0.5,0.3,1,0.3c1,0,1.6-0.6,1.6-2.1
		c0-1.5-0.7-1.9-1.4-1.9c-0.5,0-0.9,0.2-1.1,0.5V140.9z"/>
	<path class="st3" d="M67.4,140.6c0,0.4,0.2,0.6,0.4,0.6c0.3,0,0.4-0.1,0.4-0.2c0.1,0.1,0.1,0.2,0.1,0.3c0,0.1-0.3,0.6-1,0.6
		c-0.5,0-0.8-0.2-0.9-0.8h0c-0.1,0.2-0.5,0.8-1.4,0.8c-0.8,0-1.4-0.6-1.4-1.4c0-1.2,1.3-1.6,2.5-1.6h0.3v-0.5c0-1-0.3-1.4-0.9-1.4
		c-0.3,0-0.5,0.1-0.6,0.1c-0.1,0.2-0.2,0.6-0.2,1c0,0-0.2,0-0.3,0c-0.4,0-0.6-0.2-0.6-0.5c0-0.7,0.9-1.2,1.9-1.2
		c1.2,0,1.8,0.7,1.8,1.9V140.6z M66.1,139.4c-0.9,0-1.4,0.4-1.4,0.9c0,0.5,0.3,0.8,0.7,0.8c0.5,0,0.8-0.3,0.9-0.5v-1.3L66.1,139.4z"
		/>
	<path class="st3" d="M71.4,137.1c-0.1-0.1-0.4-0.2-0.7-0.2c-0.4,0-0.7,0.2-0.7,0.6c0,0.5,0.5,0.8,1,1.1c0.7,0.4,1.4,0.8,1.4,1.7
		c0,0.9-0.7,1.6-2,1.6c-0.6,0-1.2-0.2-1.4-0.3c0-0.3-0.1-0.6-0.1-0.8c0-0.4,0.1-0.6,0.5-0.6c0.1,0,0.1,0,0.1,0l0.2,0.9
		c0.1,0.1,0.4,0.2,0.7,0.2c0.5,0,0.9-0.2,0.9-0.7c0-0.5-0.5-0.7-1-1c-0.7-0.4-1.3-0.9-1.3-1.8c0-0.9,0.7-1.4,1.8-1.4
		c0.6,0,1.1,0.2,1.3,0.4c0,0.2,0,0.4,0,0.6c0,0.4-0.1,0.6-0.5,0.6c-0.1,0-0.1,0-0.1,0L71.4,137.1z"/>
	<path class="st3" d="M75.1,141.1l0.6,0.1c0.1,0,0.2,0.1,0.2,0.1c0,0.1-0.1,0.3-0.1,0.3h-2.5c0,0,0-0.1,0-0.1c0-0.2,0.1-0.3,0.3-0.4
		l0.4-0.1v-4.1l-0.8-0.1c0,0,0-0.1,0-0.1c0-0.2,0.1-0.3,0.4-0.3l1.5-0.1V141.1z M74.5,135.3c-0.4,0-0.7-0.3-0.7-0.7
		c0-0.4,0.3-0.7,0.7-0.7c0.4,0,0.7,0.3,0.7,0.7C75.3,135,74.9,135.3,74.5,135.3z"/>
	<path class="st3" d="M79.2,137.1c-0.1-0.1-0.4-0.2-0.7-0.2c-0.4,0-0.7,0.2-0.7,0.6c0,0.5,0.5,0.8,1,1.1c0.7,0.4,1.4,0.8,1.4,1.7
		c0,0.9-0.7,1.6-2,1.6c-0.6,0-1.2-0.2-1.4-0.3c0-0.3-0.1-0.6-0.1-0.8c0-0.4,0.1-0.6,0.5-0.6c0.1,0,0.1,0,0.1,0l0.2,0.9
		c0.1,0.1,0.4,0.2,0.7,0.2c0.5,0,0.9-0.2,0.9-0.7c0-0.5-0.5-0.7-1-1c-0.7-0.4-1.3-0.9-1.3-1.8c0-0.9,0.7-1.4,1.8-1.4
		c0.6,0,1.1,0.2,1.3,0.4c0,0.2,0,0.4,0,0.6c0,0.4-0.1,0.6-0.5,0.6c-0.1,0-0.1,0-0.1,0L79.2,137.1z"/>
	<path class="st3" d="M88.7,139c0,1.9-1.3,2.8-2.7,2.8c-1.4,0-2.5-0.9-2.5-2.7c0-1.9,1.3-2.8,2.7-2.8
		C87.6,136.3,88.7,137.1,88.7,139z M84.7,139.1c0,1.5,0.6,2.1,1.4,2.1c0.8,0,1.4-0.6,1.4-2.1s-0.6-2.2-1.4-2.2
		C85.3,136.9,84.7,137.6,84.7,139.1z"/>
	<path class="st3" d="M92.8,137h-1.3v4.1l0.7,0.1c0.1,0,0.2,0.1,0.2,0.1c0,0.1-0.1,0.3-0.1,0.3h-2.6c0,0,0-0.1,0-0.1
		c0-0.2,0.1-0.3,0.3-0.4l0.4-0.1V137h-0.8c0,0,0-0.1,0-0.1c0-0.2,0.1-0.3,0.3-0.4l0.5-0.1v-0.1c0-1.8,1.1-2.6,2-2.6
		c0.5,0,0.8,0.2,0.8,0.6c0,0.3-0.2,0.4-0.3,0.5c-0.1-0.1-0.4-0.3-0.7-0.3c-0.5,0-0.6,0.3-0.6,0.9c0,0.3,0,1,0,1h1.5L92.8,137z"/>
	<path class="st3" d="M99.8,140.6c0,0.4,0.2,0.6,0.4,0.6c0.3,0,0.4-0.1,0.4-0.2c0.1,0.1,0.1,0.2,0.1,0.3c0,0.1-0.3,0.6-1,0.6
		c-0.5,0-0.8-0.2-0.9-0.8h0c-0.1,0.2-0.5,0.8-1.4,0.8c-0.8,0-1.4-0.6-1.4-1.4c0-1.2,1.3-1.6,2.5-1.6h0.3v-0.5c0-1-0.3-1.4-0.9-1.4
		c-0.3,0-0.5,0.1-0.6,0.1c-0.1,0.2-0.2,0.6-0.2,1c0,0-0.2,0-0.3,0c-0.4,0-0.6-0.2-0.6-0.5c0-0.7,0.9-1.2,1.9-1.2
		c1.2,0,1.8,0.7,1.8,1.9V140.6z M98.4,139.4c-0.9,0-1.4,0.4-1.4,0.9c0,0.5,0.3,0.8,0.7,0.8s0.8-0.3,0.9-0.5v-1.3L98.4,139.4z"/>
	<path class="st3" d="M108.4,141.1l0.8,0.1c0,0,0,0,0,0.1c0,0.2-0.1,0.3-0.4,0.4l-1.5,0.1v-0.7h0c-0.2,0.3-0.7,0.8-1.6,0.8
		c-1.1,0-2.1-0.7-2.1-2.6c0-2,1.4-3,2.8-3c0.3,0,0.6,0.1,0.8,0.1v-1.9l-0.8-0.1c0,0,0-0.1,0-0.1c0-0.2,0.1-0.3,0.4-0.3l1.5-0.1
		V141.1z M107.3,137.3c-0.2-0.2-0.5-0.3-0.9-0.3c-0.9,0-1.6,0.6-1.6,2.1c0,1.4,0.6,2,1.4,2c0.6,0,1-0.3,1.1-0.5V137.3z"/>
	<path class="st3" d="M111.1,139.1c0,1.4,0.7,2,1.6,2c0.7,0,1.1-0.3,1.4-0.5c0.1,0.1,0.2,0.3,0.2,0.4c0,0.3-0.7,0.9-1.9,0.9
		c-1.4,0-2.4-0.8-2.4-2.7s1.2-2.9,2.4-2.9c1.2,0,1.9,0.8,1.9,1.9c0,0.3-0.1,0.7-0.1,0.9H111.1z M113,138.5c0-0.1,0.1-0.3,0.1-0.5
		c0-0.6-0.2-1.1-0.9-1.1c-0.6,0-1,0.5-1.1,1.6H113z"/>
	<path class="st3" d="M117.8,136.9c-0.7,0-1.4,0.5-1.4,2c0,1.4,0.5,2.2,1.6,2.2c0.7,0,1.1-0.4,1.3-0.5c0.1,0.1,0.2,0.3,0.2,0.4
		c0,0.3-0.6,0.9-1.8,0.9c-1.4,0-2.4-0.9-2.4-2.7c0-1.9,1.2-2.9,2.7-2.9c1.2,0,1.5,0.6,1.5,0.9c0,0.3-0.1,0.6-0.6,0.7
		C118.8,137.5,118.5,136.9,117.8,136.9z"/>
	<path class="st3" d="M122.1,141.1l0.6,0.1c0.1,0,0.2,0.1,0.2,0.1c0,0.1-0.1,0.3-0.1,0.3h-2.5c0,0,0-0.1,0-0.1
		c0-0.2,0.1-0.3,0.3-0.4l0.4-0.1v-4.1l-0.8-0.1c0,0,0-0.1,0-0.1c0-0.2,0.1-0.3,0.4-0.3l1.5-0.1V141.1z M121.5,135.3
		c-0.4,0-0.7-0.3-0.7-0.7c0-0.4,0.3-0.7,0.7-0.7c0.4,0,0.7,0.3,0.7,0.7C122.2,135,121.9,135.3,121.5,135.3z"/>
	<path class="st3" d="M126.2,137.1c-0.1-0.1-0.4-0.2-0.7-0.2c-0.4,0-0.7,0.2-0.7,0.6c0,0.5,0.5,0.8,1,1.1c0.7,0.4,1.4,0.8,1.4,1.7
		c0,0.9-0.7,1.6-2,1.6c-0.6,0-1.2-0.2-1.4-0.3c0-0.3-0.1-0.6-0.1-0.8c0-0.4,0.1-0.6,0.5-0.6c0.1,0,0.1,0,0.1,0l0.2,0.9
		c0.1,0.1,0.4,0.2,0.7,0.2c0.5,0,0.9-0.2,0.9-0.7c0-0.5-0.5-0.7-1-1c-0.7-0.4-1.3-0.9-1.3-1.8c0-0.9,0.7-1.4,1.8-1.4
		c0.6,0,1.1,0.2,1.3,0.4c0,0.2,0,0.4,0,0.6c0,0.4-0.1,0.6-0.5,0.6c-0.1,0-0.1,0-0.1,0L126.2,137.1z"/>
	<path class="st3" d="M129.8,141.1l0.6,0.1c0.1,0,0.2,0.1,0.2,0.1c0,0.1-0.1,0.3-0.1,0.3H128c0,0,0-0.1,0-0.1c0-0.2,0.1-0.3,0.3-0.4
		l0.4-0.1v-4.1l-0.8-0.1c0,0,0-0.1,0-0.1c0-0.2,0.1-0.3,0.4-0.3l1.5-0.1V141.1z M129.3,135.3c-0.4,0-0.7-0.3-0.7-0.7
		c0-0.4,0.3-0.7,0.7-0.7c0.4,0,0.7,0.3,0.7,0.7C130,135,129.7,135.3,129.3,135.3z"/>
	<path class="st3" d="M136.5,139c0,1.9-1.3,2.8-2.7,2.8c-1.4,0-2.5-0.9-2.5-2.7c0-1.9,1.3-2.8,2.7-2.8
		C135.4,136.3,136.5,137.1,136.5,139z M132.5,139.1c0,1.5,0.6,2.1,1.4,2.1c0.8,0,1.4-0.6,1.4-2.1s-0.6-2.2-1.4-2.2
		C133.1,136.9,132.5,137.6,132.5,139.1z"/>
	<path class="st3" d="M142.7,141.1l0.6,0.1c0.1,0,0.2,0.1,0.2,0.1c0,0.1-0.1,0.3-0.1,0.3h-2.5c0,0,0-0.1,0-0.1
		c0-0.2,0.1-0.3,0.3-0.4l0.4-0.1v-2.8c0-0.9-0.5-1.2-1.1-1.2c-0.6,0-1,0.3-1.3,0.5v3.5l0.6,0.1c0.1,0,0.2,0.1,0.2,0.1
		c0,0.1-0.1,0.3-0.1,0.3h-2.5c0,0,0-0.1,0-0.1c0-0.2,0.1-0.3,0.3-0.4l0.4-0.1v-4.1l-0.8-0.1c0,0,0-0.1,0-0.1c0-0.2,0.1-0.3,0.4-0.3
		l1.5-0.1l-0.1,0.8h0c0.3-0.3,0.8-0.8,1.8-0.8c1.1,0,1.7,0.7,1.7,1.9V141.1z"/>
	<path class="st3" d="M25.5,148L25.5,148c0.3-0.3,0.8-0.7,1.6-0.7c1,0,2,0.7,2,2.6c0,2.1-1.4,3-2.9,3c-1,0-1.6-0.3-1.9-0.4v-7
		l-0.8-0.1c0,0,0-0.1,0-0.1c0-0.2,0.1-0.3,0.4-0.3l1.5-0.1V148z M25.5,151.9c0.2,0.1,0.5,0.3,1,0.3c1,0,1.6-0.6,1.6-2.1
		c0-1.5-0.7-1.9-1.4-1.9c-0.5,0-0.9,0.2-1.1,0.5V151.9z"/>
	<path class="st3" d="M34.8,148l-1.8,4.8c-0.6,1.7-1.4,2.3-2.3,2.3c-0.5,0-0.7-0.2-0.7-0.6c0-0.2,0.1-0.4,0.2-0.5
		c0.1,0.1,0.3,0.1,0.5,0.1c0.7,0,1.3-0.3,1.6-1.2l-2.1-5l-0.5-0.2c0,0,0-0.1,0-0.1c0-0.2,0.1-0.3,0.3-0.3H32c0.1,0,0.1,0,0.1,0.1
		c0,0.1-0.1,0.2-0.1,0.3l-0.6,0.2l1.3,3.6h0L34,148l-0.8-0.2c0,0,0-0.1,0-0.1c0-0.2,0.1-0.3,0.3-0.3h1.8c0.1,0,0.1,0,0.1,0.1
		c0,0.1-0.1,0.2-0.1,0.3L34.8,148z"/>
	<path class="st3" d="M41.2,148h-1.5v3.2c0,0.5,0.2,0.9,0.7,0.9c0.4,0,0.8-0.2,0.9-0.3c0.1,0.1,0.1,0.3,0.1,0.4s-0.4,0.6-1.4,0.6
		c-1,0-1.4-0.6-1.4-1.4V148h-0.8c0,0,0-0.1,0-0.1c0-0.2,0.1-0.3,0.3-0.4l0.5-0.1l0.3-1.5h0.8v1.5h1.6L41.2,148z"/>
	<path class="st3" d="M43.7,148.1L43.7,148.1c0.2-0.3,0.8-0.8,1.7-0.8c1.1,0,1.7,0.6,1.7,1.9v2.9l0.6,0.1c0.1,0,0.2,0.1,0.2,0.1
		c0,0.1-0.1,0.3-0.1,0.3h-2.5c0,0,0-0.1,0-0.1c0-0.2,0.1-0.3,0.3-0.4l0.4-0.1v-2.8c0-0.9-0.5-1.2-1.1-1.2c-0.7,0-1,0.3-1.3,0.5v3.5
		l0.6,0.1c0.1,0,0.2,0.1,0.2,0.1c0,0.1-0.1,0.3-0.1,0.3h-2.5c0,0,0-0.1,0-0.1c0-0.2,0.1-0.3,0.3-0.4l0.4-0.1v-6.7l-0.8-0.1
		c0,0,0-0.1,0-0.1c0-0.2,0.1-0.3,0.4-0.3l1.5-0.1V148.1z"/>
	<path class="st3" d="M49.7,150.1c0,1.4,0.7,2,1.6,2c0.7,0,1.1-0.3,1.4-0.5c0.1,0.1,0.2,0.3,0.2,0.4c0,0.3-0.7,0.9-1.9,0.9
		c-1.4,0-2.4-0.8-2.4-2.7s1.2-2.9,2.4-2.9c1.2,0,1.9,0.8,1.9,1.9c0,0.3-0.1,0.7-0.1,0.9H49.7z M51.7,149.5c0-0.1,0.1-0.3,0.1-0.5
		c0-0.6-0.2-1.1-0.9-1.1c-0.6,0-1,0.5-1.1,1.6H51.7z"/>
	<path class="st3" d="M61.6,146c-0.2-0.2-0.7-0.3-1.3-0.3c-1.3,0-2.7,0.9-2.7,3.2c0,2.2,1,3.3,2.5,3.3c0.5,0,0.9-0.1,1.3-0.2v-2.2
		l-0.7-0.2c-0.1,0-0.2-0.1-0.2-0.1c0-0.1,0.1-0.2,0.1-0.3h2.5c0,0,0,0.1,0,0.1c0,0.2-0.1,0.3-0.4,0.4l-0.3,0.1v2.3
		c-0.3,0.3-1.1,0.9-2.7,0.9c-1.9,0-3.5-1.2-3.5-3.9c0-2.9,2.1-4,3.9-4c1.2,0,1.7,0.3,2.1,0.5c0,0.3,0.1,1,0.1,1.1
		c0,0.3-0.1,0.6-0.4,0.6c-0.1,0-0.2,0-0.3,0L61.6,146z"/>
	<path class="st3" d="M65.2,150.1c0,1.4,0.7,2,1.6,2c0.7,0,1.1-0.3,1.4-0.5c0.1,0.1,0.2,0.3,0.2,0.4c0,0.3-0.7,0.9-1.9,0.9
		c-1.4,0-2.4-0.8-2.4-2.7s1.2-2.9,2.4-2.9c1.2,0,1.9,0.8,1.9,1.9c0,0.3-0.1,0.7-0.1,0.9H65.2z M67.1,149.5c0-0.1,0.1-0.3,0.1-0.5
		c0-0.6-0.2-1.1-0.9-1.1c-0.6,0-1,0.5-1.1,1.6H67.1z"/>
	<path class="st3" d="M71,148.3L71,148.3c0.3-0.4,0.7-1,1.4-1c0.5,0,0.8,0.2,0.8,0.6c0,0.2-0.1,0.5-0.2,0.6c-0.1,0-0.4-0.2-0.7-0.2
		c-0.6,0-0.9,0.2-1.1,0.6v3.3l0.8,0.1c0.1,0,0.2,0.1,0.2,0.1c0,0.1-0.1,0.3-0.1,0.3h-2.7c0,0,0-0.1,0-0.1c0-0.2,0.1-0.3,0.3-0.4
		l0.4-0.1v-4.1l-0.8-0.1c0,0,0-0.1,0-0.1c0-0.2,0.1-0.3,0.4-0.3l1.5-0.1L71,148.3z"/>
	<path class="st3" d="M82.2,152.1l0.6,0.1c0.1,0,0.2,0.1,0.2,0.1c0,0.1-0.1,0.3-0.1,0.3h-2.5c0,0,0-0.1,0-0.1c0-0.2,0.1-0.3,0.3-0.4
		l0.4-0.1v-2.8c0-1-0.5-1.2-1-1.2c-0.7,0-1,0.3-1.3,0.5c0,0.2,0.1,0.4,0.1,0.6v2.9l0.6,0.1c0.1,0,0.2,0.1,0.2,0.1
		c0,0.1-0.1,0.3-0.1,0.3H77c0,0,0-0.1,0-0.1c0-0.2,0.1-0.3,0.3-0.4l0.4-0.1v-2.8c0-1-0.5-1.2-1-1.2c-0.6,0-1,0.3-1.2,0.5v3.5
		l0.6,0.1c0.1,0,0.2,0.1,0.2,0.1c0,0.1-0.1,0.3-0.1,0.3h-2.5c0,0,0-0.1,0-0.1c0-0.2,0.1-0.3,0.3-0.4l0.4-0.1v-4.1l-0.8-0.1
		c0,0,0-0.1,0-0.1c0-0.2,0.1-0.3,0.4-0.3l1.5-0.1l-0.1,0.7h0c0.2-0.3,0.8-0.8,1.7-0.8c0.7,0,1.2,0.3,1.4,0.9
		c0.3-0.3,0.9-0.9,1.9-0.9c1.1,0,1.7,0.7,1.7,1.9V152.1z"/>
	<path class="st3" d="M87.5,151.6c0,0.4,0.2,0.6,0.4,0.6c0.3,0,0.4-0.1,0.4-0.2c0.1,0.1,0.1,0.2,0.1,0.3c0,0.1-0.3,0.6-1,0.6
		c-0.5,0-0.8-0.2-0.9-0.8h0c-0.1,0.2-0.5,0.8-1.4,0.8c-0.8,0-1.4-0.6-1.4-1.4c0-1.2,1.3-1.6,2.5-1.6h0.3v-0.5c0-1-0.3-1.4-0.9-1.4
		c-0.3,0-0.5,0.1-0.6,0.1c-0.1,0.2-0.2,0.6-0.2,1c0,0-0.2,0-0.3,0c-0.4,0-0.6-0.2-0.6-0.5c0-0.7,0.9-1.2,1.9-1.2
		c1.2,0,1.8,0.7,1.8,1.9V151.6z M86.2,150.4c-0.9,0-1.4,0.4-1.4,0.9c0,0.5,0.3,0.8,0.7,0.8c0.5,0,0.8-0.3,0.9-0.5v-1.3L86.2,150.4z"
		/>
	<path class="st3" d="M94.2,152.1l0.6,0.1c0.1,0,0.2,0.1,0.2,0.1c0,0.1-0.1,0.3-0.1,0.3h-2.5c0,0,0-0.1,0-0.1c0-0.2,0.1-0.3,0.3-0.4
		l0.4-0.1v-2.8c0-0.9-0.5-1.2-1.1-1.2c-0.6,0-1,0.3-1.3,0.5v3.5l0.6,0.1c0.1,0,0.2,0.1,0.2,0.1c0,0.1-0.1,0.3-0.1,0.3h-2.5
		c0,0,0-0.1,0-0.1c0-0.2,0.1-0.3,0.3-0.4l0.4-0.1v-4.1l-0.8-0.1c0,0,0-0.1,0-0.1c0-0.2,0.1-0.3,0.4-0.3l1.5-0.1l-0.1,0.8h0
		c0.3-0.3,0.8-0.8,1.8-0.8c1.1,0,1.7,0.7,1.7,1.9V152.1z"/>
	<path class="st3" d="M102.1,148.8L102.1,148.8c1.1,0.2,1.8,0.8,1.8,1.8c0,1.2-1,2.1-3,2.1h-2.8c0,0,0-0.1,0-0.1
		c0-0.2,0.1-0.3,0.4-0.4l0.5-0.1v-6.4l-0.7-0.2c-0.1,0-0.2-0.1-0.2-0.1c0-0.1,0.1-0.2,0.1-0.3h2.6c2,0,2.9,0.7,2.9,1.9
		C103.7,148.1,103.1,148.6,102.1,148.8z M100.7,145.8h-0.6v2.8h0.6c1.3,0,1.8-0.6,1.8-1.4C102.5,146.3,101.9,145.8,100.7,145.8z
		 M100.8,149.2h-0.7v2.8h0.7c1.3,0,1.9-0.6,1.9-1.5C102.6,149.8,102,149.2,100.8,149.2z"/>
	<path class="st3" d="M109.9,152.1l0.8,0.1c0,0,0,0,0,0.1c0,0.2-0.1,0.3-0.4,0.4l-1.5,0.1v-0.7h0c-0.2,0.2-0.7,0.8-1.6,0.8
		c-1.2,0-1.7-0.7-1.7-2v-2.8l-0.8-0.1c0,0,0-0.1,0-0.1c0-0.2,0.1-0.3,0.4-0.3l1.5-0.1v3.5c0,1,0.5,1.2,1,1.2c0.6,0,0.9-0.2,1.2-0.5
		v-3.5l-0.8-0.1c0,0,0-0.1,0-0.1c0-0.2,0.1-0.3,0.4-0.3l1.5-0.1V152.1z"/>
	<path class="st3" d="M116.6,152.1l0.6,0.1c0.1,0,0.2,0.1,0.2,0.1c0,0.1-0.1,0.3-0.1,0.3h-2.5c0,0,0-0.1,0-0.1
		c0-0.2,0.1-0.3,0.3-0.4l0.4-0.1v-2.8c0-0.9-0.5-1.2-1.1-1.2c-0.6,0-1,0.3-1.3,0.5v3.5l0.6,0.1c0.1,0,0.2,0.1,0.2,0.1
		c0,0.1-0.1,0.3-0.1,0.3h-2.5c0,0,0-0.1,0-0.1c0-0.2,0.1-0.3,0.3-0.4l0.4-0.1v-4.1l-0.8-0.1c0,0,0-0.1,0-0.1c0-0.2,0.1-0.3,0.4-0.3
		l1.5-0.1l-0.1,0.8h0c0.3-0.3,0.8-0.8,1.8-0.8c1.1,0,1.7,0.7,1.7,1.9V152.1z"/>
	<path class="st3" d="M122.8,152.1l0.8,0.1c0,0,0,0,0,0.1c0,0.2-0.1,0.3-0.4,0.4l-1.5,0.1v-0.7h0c-0.2,0.3-0.7,0.8-1.6,0.8
		c-1.1,0-2.1-0.7-2.1-2.6c0-2,1.4-3,2.8-3c0.3,0,0.6,0.1,0.8,0.1v-1.9l-0.8-0.1c0,0,0-0.1,0-0.1c0-0.2,0.1-0.3,0.4-0.3l1.5-0.1
		V152.1z M121.7,148.3c-0.2-0.2-0.5-0.3-0.9-0.3c-0.9,0-1.6,0.6-1.6,2.1c0,1.4,0.6,2,1.4,2c0.6,0,1-0.3,1.1-0.5V148.3z"/>
	<path class="st3" d="M125.5,150.1c0,1.4,0.7,2,1.6,2c0.7,0,1.1-0.3,1.4-0.5c0.1,0.1,0.2,0.3,0.2,0.4c0,0.3-0.7,0.9-1.9,0.9
		c-1.4,0-2.4-0.8-2.4-2.7s1.2-2.9,2.4-2.9c1.2,0,1.9,0.8,1.9,1.9c0,0.3-0.1,0.7-0.1,0.9H125.5z M127.5,149.5c0-0.1,0.1-0.3,0.1-0.5
		c0-0.6-0.2-1.1-0.9-1.1c-0.6,0-1,0.5-1.1,1.6H127.5z"/>
	<path class="st3" d="M132.2,148.1c-0.1-0.1-0.4-0.2-0.7-0.2c-0.4,0-0.7,0.2-0.7,0.6c0,0.5,0.5,0.8,1,1.1c0.7,0.4,1.4,0.8,1.4,1.7
		c0,0.9-0.7,1.6-2,1.6c-0.6,0-1.2-0.2-1.4-0.3c0-0.3-0.1-0.6-0.1-0.8c0-0.4,0.1-0.6,0.5-0.6c0.1,0,0.1,0,0.1,0l0.2,0.9
		c0.1,0.1,0.4,0.2,0.7,0.2c0.5,0,0.9-0.2,0.9-0.7c0-0.5-0.5-0.7-1-1c-0.7-0.4-1.3-0.9-1.3-1.8c0-0.9,0.7-1.4,1.8-1.4
		c0.6,0,1.1,0.2,1.3,0.4c0,0.2,0,0.4,0,0.6c0,0.4-0.1,0.6-0.5,0.6c-0.1,0-0.1,0-0.1,0L132.2,148.1z"/>
	<path class="st3" d="M137.3,148h-1.5v3.2c0,0.5,0.2,0.9,0.7,0.9c0.4,0,0.8-0.2,0.9-0.3c0.1,0.1,0.1,0.3,0.1,0.4s-0.4,0.6-1.4,0.6
		s-1.4-0.6-1.4-1.4V148h-0.8c0,0,0-0.1,0-0.1c0-0.2,0.1-0.3,0.3-0.4l0.5-0.1l0.3-1.5h0.8v1.5h1.6L137.3,148z"/>
	<path class="st3" d="M141.9,151.6c0,0.4,0.2,0.6,0.4,0.6c0.3,0,0.4-0.1,0.4-0.2c0.1,0.1,0.1,0.2,0.1,0.3c0,0.1-0.3,0.6-1,0.6
		c-0.5,0-0.8-0.2-0.9-0.8h0c-0.1,0.2-0.5,0.8-1.4,0.8c-0.8,0-1.4-0.6-1.4-1.4c0-1.2,1.3-1.6,2.5-1.6h0.3v-0.5c0-1-0.3-1.4-0.9-1.4
		c-0.3,0-0.5,0.1-0.6,0.1c-0.1,0.2-0.2,0.6-0.2,1c0,0-0.2,0-0.3,0c-0.4,0-0.6-0.2-0.6-0.5c0-0.7,0.9-1.2,1.9-1.2
		c1.2,0,1.8,0.7,1.8,1.9V151.6z M140.6,150.4c-0.9,0-1.4,0.4-1.4,0.9c0,0.5,0.3,0.8,0.7,0.8s0.8-0.3,0.9-0.5v-1.3L140.6,150.4z"/>
	<path class="st3" d="M148.3,148h-0.9c0.2,0.3,0.3,0.6,0.3,1c0,1.2-1,1.8-2.2,1.8c-0.2,0-0.4,0-0.5-0.1c-0.2,0.1-0.3,0.2-0.3,0.5
		c0,0.3,0.2,0.4,0.5,0.4h1.3c1,0,1.6,0.5,1.6,1.3c0,1.1-1.1,2.1-2.9,2.1c-1.4,0-2-0.5-2-1.3c0-0.8,0.6-1.1,1-1.3v0
		c-0.3-0.2-0.5-0.4-0.5-0.8c0-0.6,0.6-0.9,0.8-1v0c-0.6-0.3-1-0.8-1-1.6c0-1.2,1-1.8,2.1-1.8c0.3,0,0.6,0,0.9,0.1h1.9L148.3,148z
		 M145.1,152.7c-0.2,0-0.3,0-0.4,0c-0.3,0.2-0.5,0.4-0.5,0.8c0,0.6,0.4,0.9,1.2,0.9c1.1,0,1.7-0.5,1.7-1.1c0-0.5-0.3-0.6-0.8-0.6
		H145.1z M144.7,149.1c0,0.9,0.4,1.2,1,1.2c0.6,0,1-0.3,1-1.2c0-0.8-0.4-1.2-1-1.2C145.1,147.9,144.7,148.2,144.7,149.1z"/>
</g>
<path class="st3" d="M63.5,59.7v-8.2h4l-0.1,0.8h-2.9v3h2.7v0.8h-2.7v3.5H63.5z M72.2,55.9c0,0.2,0,0.5,0,0.6c0,0.2,0,0.3,0,0.5
	h-2.9c0,0.7,0.2,1.2,0.4,1.5c0.3,0.3,0.6,0.5,1.1,0.5c0.2,0,0.3,0,0.5-0.1s0.3-0.1,0.4-0.1c0.1-0.1,0.2-0.1,0.2-0.2
	c0.1-0.1,0.1-0.1,0.1-0.1l0.4,0.7c0,0-0.1,0.1-0.2,0.2c-0.1,0.1-0.2,0.2-0.3,0.2c-0.1,0.1-0.3,0.1-0.5,0.2c-0.2,0.1-0.4,0.1-0.7,0.1
	c-0.4,0-0.7-0.1-1-0.2c-0.3-0.1-0.5-0.3-0.7-0.6s-0.4-0.6-0.5-1c-0.1-0.4-0.2-0.8-0.2-1.4c0-0.5,0.1-0.9,0.2-1.3
	c0.1-0.4,0.3-0.7,0.5-0.9s0.4-0.4,0.7-0.5c0.3-0.1,0.5-0.2,0.8-0.2c0.5,0,1,0.2,1.3,0.5C72.1,54.7,72.2,55.2,72.2,55.9z M70.4,54.6
	c-0.3,0-0.6,0.1-0.8,0.4s-0.3,0.7-0.4,1.2h2.1c0,0,0-0.1,0-0.2c0-0.1,0-0.2,0-0.2c0-0.4-0.1-0.7-0.2-0.9
	C70.9,54.7,70.7,54.6,70.4,54.6z M73.2,56.9c0-0.6,0.1-1.1,0.2-1.5c0.2-0.4,0.3-0.7,0.6-0.9c0.2-0.2,0.5-0.4,0.8-0.5
	c0.3-0.1,0.6-0.1,0.9-0.1c0.2,0,0.3,0,0.5,0c0.1,0,0.2,0.1,0.3,0.1v-2.7l1-0.1v8.5h-0.9v-0.6h0c0,0-0.1,0.1-0.1,0.2
	c-0.1,0.1-0.2,0.2-0.3,0.2c-0.1,0.1-0.2,0.2-0.4,0.2c-0.2,0.1-0.4,0.1-0.6,0.1c-0.3,0-0.5-0.1-0.8-0.2c-0.2-0.1-0.5-0.3-0.6-0.5
	c-0.2-0.2-0.3-0.5-0.4-0.9S73.2,57.5,73.2,56.9z M75.5,59c0.2,0,0.3,0,0.4-0.1c0.1,0,0.2-0.1,0.3-0.1c0.1-0.1,0.2-0.1,0.2-0.2
	c0.1-0.1,0.1-0.1,0.1-0.2v-3.5c-0.1-0.1-0.2-0.1-0.3-0.1c-0.1,0-0.3-0.1-0.4-0.1c-0.2,0-0.4,0-0.6,0.1c-0.2,0.1-0.4,0.2-0.5,0.4
	c-0.1,0.2-0.3,0.4-0.3,0.7c-0.1,0.3-0.1,0.6-0.1,1c0,0.4,0,0.7,0.1,1c0.1,0.3,0.2,0.5,0.3,0.6c0.1,0.2,0.3,0.3,0.4,0.4
	C75.2,58.9,75.3,59,75.5,59z M82.7,55.9c0,0.2,0,0.5,0,0.6c0,0.2,0,0.3,0,0.5h-2.9c0,0.7,0.2,1.2,0.4,1.5c0.3,0.3,0.6,0.5,1.1,0.5
	c0.2,0,0.3,0,0.5-0.1c0.1,0,0.3-0.1,0.4-0.1c0.1-0.1,0.2-0.1,0.2-0.2c0.1-0.1,0.1-0.1,0.1-0.1l0.4,0.7c0,0-0.1,0.1-0.2,0.2
	c-0.1,0.1-0.2,0.2-0.3,0.2c-0.1,0.1-0.3,0.1-0.5,0.2c-0.2,0.1-0.4,0.1-0.7,0.1c-0.4,0-0.7-0.1-1-0.2c-0.3-0.1-0.5-0.3-0.7-0.6
	s-0.4-0.6-0.5-1c-0.1-0.4-0.2-0.8-0.2-1.4c0-0.5,0.1-0.9,0.2-1.3c0.1-0.4,0.3-0.7,0.5-0.9c0.2-0.2,0.4-0.4,0.7-0.5
	c0.3-0.1,0.5-0.2,0.8-0.2c0.5,0,1,0.2,1.3,0.5C82.5,54.7,82.7,55.2,82.7,55.9z M80.9,54.6c-0.3,0-0.6,0.1-0.8,0.4s-0.3,0.7-0.4,1.2
	h2.1c0,0,0-0.1,0-0.2c0-0.1,0-0.2,0-0.2c0-0.4-0.1-0.7-0.2-0.9C81.4,54.7,81.2,54.6,80.9,54.6z M86.5,54.8c0,0-0.1,0-0.2-0.1
	s-0.2,0-0.3,0c-0.3,0-0.5,0.1-0.7,0.2c-0.2,0.2-0.3,0.3-0.4,0.5v4.2h-1V54h0.9v0.8h0c0-0.1,0.1-0.2,0.2-0.3c0.1-0.1,0.1-0.2,0.2-0.3
	s0.2-0.1,0.3-0.2c0.1,0,0.3-0.1,0.5-0.1c0.1,0,0.2,0,0.3,0c0.1,0,0.1,0,0.2,0.1L86.5,54.8z M87,58.2c0-0.3,0.1-0.6,0.2-0.8
	c0.1-0.2,0.3-0.4,0.5-0.5c0.2-0.1,0.5-0.2,0.8-0.3c0.3-0.1,0.6-0.1,0.9-0.1h0.3v-0.5c0-0.5-0.1-0.8-0.3-1c-0.2-0.2-0.4-0.3-0.7-0.3
	c-0.3,0-0.5,0.1-0.7,0.2c-0.2,0.1-0.3,0.2-0.5,0.3l-0.4-0.6c0.1-0.1,0.1-0.1,0.2-0.2c0.1-0.1,0.2-0.2,0.4-0.2s0.3-0.1,0.5-0.2
	s0.4-0.1,0.6-0.1c0.6,0,1,0.2,1.3,0.5c0.3,0.3,0.5,0.8,0.5,1.6v2.6c0,0.2,0,0.5,0,0.7c0,0.2,0,0.4,0,0.5h-0.9l0-0.6h0
	c0,0.1-0.1,0.2-0.1,0.2c-0.1,0.1-0.1,0.2-0.2,0.2c-0.1,0.1-0.2,0.1-0.3,0.2c-0.1,0.1-0.3,0.1-0.5,0.1c-0.2,0-0.4,0-0.6-0.1
	c-0.2-0.1-0.3-0.2-0.5-0.3c-0.1-0.1-0.2-0.3-0.3-0.5C87.1,58.7,87,58.5,87,58.2z M88.8,59c0.1,0,0.3,0,0.4-0.1
	c0.1,0,0.2-0.1,0.3-0.1c0.1-0.1,0.1-0.1,0.2-0.2c0.1-0.1,0.1-0.1,0.1-0.2v-1.3l-0.3,0c-0.5,0-0.8,0.1-1,0.2S88,57.8,88,58.1
	c0,0.3,0.1,0.5,0.2,0.7C88.3,58.9,88.5,59,88.8,59z M93.1,58.4c0,0.2,0,0.4,0.1,0.5c0.1,0.1,0.2,0.1,0.4,0.1c0.1,0,0.2,0,0.2,0
	c0.1,0,0.1,0,0.1,0l0.1,0.7c0,0-0.1,0.1-0.3,0.1s-0.3,0.1-0.5,0.1c-0.3,0-0.6-0.1-0.8-0.3c-0.2-0.2-0.3-0.6-0.3-1.1v-7.2l1-0.1V58.4
	z M104.4,51.5v8.2h-1v-3.9c0-0.2,0-0.5,0-0.7c0-0.2,0-0.5,0-0.7c0-0.2,0-0.4,0-0.5s0-0.3,0-0.4h0c0,0.2-0.1,0.5-0.2,0.9
	c-0.1,0.4-0.3,0.8-0.4,1.3l-1.4,4h-0.8l-1.4-4c-0.2-0.5-0.3-0.9-0.4-1.3c-0.1-0.4-0.2-0.7-0.2-0.9h0c0,0.1,0,0.2,0,0.4
	c0,0.2,0,0.3,0,0.5c0,0.2,0,0.4,0,0.7c0,0.2,0,0.5,0,0.7v3.9h-1v-8.2h1.2l1.9,5.7c0.1,0.3,0.2,0.5,0.2,0.8c0.1,0.2,0.1,0.5,0.1,0.6
	h0c0-0.2,0-0.4,0.1-0.6c0.1-0.2,0.1-0.5,0.2-0.8l1.9-5.7H104.4z M107,59.7h-1V54h1V59.7z M106.6,52.6c-0.2,0-0.4-0.1-0.5-0.2
	c-0.1-0.1-0.2-0.3-0.2-0.5c0-0.2,0.1-0.4,0.2-0.5c0.1-0.1,0.3-0.2,0.5-0.2c0.2,0,0.3,0.1,0.5,0.2c0.1,0.1,0.2,0.3,0.2,0.5
	c0,0.2-0.1,0.4-0.2,0.5C106.9,52.5,106.7,52.6,106.6,52.6z M111.6,59.7V56c0-0.5-0.1-0.8-0.2-1c-0.2-0.2-0.4-0.3-0.7-0.3
	c-0.3,0-0.5,0.1-0.7,0.2s-0.3,0.3-0.5,0.4v4.4h-1V54h0.9v0.6h0c0,0,0.1-0.1,0.2-0.2c0.1-0.1,0.2-0.2,0.3-0.3
	c0.1-0.1,0.3-0.2,0.5-0.2c0.2-0.1,0.4-0.1,0.6-0.1c0.3,0,0.5,0,0.7,0.1c0.2,0.1,0.4,0.2,0.5,0.4s0.3,0.4,0.3,0.6
	c0.1,0.3,0.1,0.6,0.1,1v3.7H111.6z M115,59.7h-1V54h1V59.7z M114.5,52.6c-0.2,0-0.4-0.1-0.5-0.2c-0.1-0.1-0.2-0.3-0.2-0.5
	c0-0.2,0.1-0.4,0.2-0.5c0.1-0.1,0.3-0.2,0.5-0.2c0.2,0,0.3,0.1,0.5,0.2c0.1,0.1,0.2,0.3,0.2,0.5c0,0.2-0.1,0.4-0.2,0.5
	C114.9,52.5,114.7,52.6,114.5,52.6z M118.9,55.1c-0.1-0.1-0.2-0.2-0.3-0.3c-0.2-0.1-0.4-0.2-0.7-0.2c-0.3,0-0.4,0.1-0.6,0.2
	s-0.2,0.3-0.2,0.4c0,0.2,0.1,0.4,0.2,0.5c0.1,0.1,0.3,0.3,0.6,0.4l0.4,0.2c0.4,0.2,0.7,0.5,0.9,0.7c0.2,0.3,0.3,0.6,0.3,1
	c0,0.5-0.2,0.8-0.5,1.1c-0.3,0.3-0.8,0.5-1.4,0.5c-0.2,0-0.4,0-0.6-0.1s-0.3-0.1-0.5-0.2c-0.1-0.1-0.2-0.1-0.3-0.2
	c-0.1-0.1-0.2-0.1-0.2-0.2l0.5-0.8c0,0,0.1,0.1,0.2,0.2c0.1,0.1,0.1,0.1,0.2,0.2c0.1,0.1,0.2,0.1,0.3,0.1c0.1,0,0.3,0.1,0.4,0.1
	c0.3,0,0.5-0.1,0.7-0.2c0.2-0.1,0.2-0.3,0.2-0.5c0-0.1,0-0.3-0.1-0.4c0-0.1-0.1-0.2-0.2-0.3c-0.1-0.1-0.2-0.2-0.3-0.2
	c-0.1-0.1-0.2-0.2-0.4-0.2l-0.4-0.2c-0.4-0.2-0.6-0.5-0.8-0.7c-0.2-0.3-0.3-0.6-0.3-1c0-0.2,0-0.4,0.1-0.6c0.1-0.2,0.2-0.3,0.4-0.5
	c0.2-0.1,0.3-0.2,0.5-0.3c0.2-0.1,0.4-0.1,0.6-0.1c0.2,0,0.4,0,0.6,0.1c0.2,0,0.3,0.1,0.4,0.2c0.1,0.1,0.2,0.1,0.3,0.2
	c0.1,0.1,0.1,0.1,0.2,0.2L118.9,55.1z M123.1,54.8h-1.2v3.2c0,0.4,0.1,0.7,0.2,0.8c0.1,0.1,0.3,0.2,0.5,0.2c0.1,0,0.3,0,0.4-0.1
	c0.1,0,0.2-0.1,0.2-0.1l0.1,0.8c0,0-0.1,0.1-0.3,0.1c-0.2,0.1-0.4,0.1-0.6,0.1c-0.5,0-0.9-0.1-1.1-0.4c-0.2-0.3-0.4-0.7-0.4-1.4
	v-3.3h-0.7v-0.6l0.7-0.1l0.1-1.6h0.9V54h1.4L123.1,54.8z M126.7,54.8c0,0-0.1,0-0.2-0.1s-0.2,0-0.3,0c-0.3,0-0.5,0.1-0.7,0.2
	c-0.2,0.2-0.3,0.3-0.4,0.5v4.2h-1V54h0.9v0.8h0c0-0.1,0.1-0.2,0.2-0.3c0.1-0.1,0.1-0.2,0.2-0.3s0.2-0.1,0.3-0.2
	c0.1,0,0.3-0.1,0.5-0.1c0.1,0,0.2,0,0.3,0c0.1,0,0.1,0,0.2,0.1L126.7,54.8z M131.4,54l-1.8,6c-0.2,0.7-0.5,1.2-0.8,1.6
	c-0.3,0.4-0.7,0.5-1.3,0.5c-0.1,0-0.2,0-0.3,0c-0.1,0-0.1,0-0.2-0.1v-0.8c0,0,0.1,0,0.2,0.1c0.1,0,0.1,0,0.2,0
	c0.3,0,0.6-0.1,0.8-0.3c0.2-0.2,0.3-0.5,0.5-1l0.1-0.3L127,54h1l0.9,3.2c0.1,0.3,0.2,0.6,0.2,0.9c0.1,0.3,0.1,0.5,0.1,0.8h0
	c0-0.2,0.1-0.5,0.1-0.7c0.1-0.3,0.1-0.6,0.2-0.9l0.8-3.2H131.4z M65.7,66.8h-1.2v4.9h-1v-4.9h-0.7v-0.6l0.7-0.1v-1.1
	c0-0.3,0-0.6,0.1-0.8c0.1-0.2,0.2-0.4,0.3-0.5s0.3-0.2,0.5-0.3c0.2-0.1,0.4-0.1,0.6-0.1c0.2,0,0.4,0,0.5,0.1s0.2,0.1,0.3,0.1
	l-0.2,0.8c0,0-0.1-0.1-0.2-0.1c-0.1,0-0.2-0.1-0.3-0.1c-0.2,0-0.4,0.1-0.5,0.2c-0.1,0.1-0.2,0.4-0.2,0.8v1h1.3L65.7,66.8z
	 M66.3,68.8c0-0.5,0.1-1,0.2-1.4c0.1-0.4,0.3-0.7,0.5-0.9c0.2-0.2,0.5-0.4,0.7-0.5c0.3-0.1,0.6-0.2,0.9-0.2c0.3,0,0.6,0.1,0.9,0.2
	c0.3,0.1,0.5,0.3,0.7,0.5c0.2,0.2,0.4,0.6,0.5,0.9c0.1,0.4,0.2,0.8,0.2,1.4c0,0.5-0.1,1-0.2,1.4s-0.3,0.7-0.5,0.9
	c-0.2,0.2-0.5,0.4-0.7,0.5s-0.6,0.2-0.9,0.2c-0.3,0-0.6-0.1-0.9-0.2s-0.5-0.3-0.7-0.5c-0.2-0.2-0.4-0.6-0.5-0.9
	C66.4,69.8,66.3,69.4,66.3,68.8z M69.8,68.8c0-0.8-0.1-1.3-0.3-1.7c-0.2-0.3-0.5-0.5-0.9-0.5c-0.4,0-0.7,0.2-0.9,0.5
	c-0.2,0.3-0.3,0.9-0.3,1.7s0.1,1.3,0.3,1.6c0.2,0.3,0.5,0.5,0.9,0.5c0.4,0,0.7-0.2,0.9-0.5C69.7,70.2,69.8,69.6,69.8,68.8z
	 M74.5,66.8c0,0-0.1,0-0.2-0.1c-0.1,0-0.2,0-0.3,0c-0.3,0-0.5,0.1-0.7,0.2c-0.2,0.2-0.3,0.3-0.4,0.5v4.2h-1V66h0.9v0.8h0
	c0-0.1,0.1-0.2,0.2-0.3c0.1-0.1,0.1-0.2,0.2-0.3c0.1-0.1,0.2-0.1,0.3-0.2c0.1,0,0.3-0.1,0.5-0.1c0.1,0,0.2,0,0.3,0
	c0.1,0,0.1,0,0.2,0.1L74.5,66.8z M81.9,64.3H79v2.8h2.7V68H79v2.9h3.2l-0.1,0.9h-4.2v-8.2h4L81.9,64.3z M86.5,67.1
	c0,0-0.1-0.1-0.1-0.1c-0.1,0-0.1-0.1-0.2-0.1s-0.2-0.1-0.3-0.1c-0.1,0-0.2-0.1-0.4-0.1c-0.2,0-0.4,0-0.6,0.1
	c-0.2,0.1-0.3,0.2-0.5,0.4c-0.1,0.2-0.2,0.4-0.3,0.6c-0.1,0.3-0.1,0.6-0.1,1c0,0.4,0,0.8,0.1,1.1c0.1,0.3,0.2,0.5,0.3,0.7
	c0.1,0.2,0.3,0.3,0.4,0.4c0.2,0.1,0.4,0.1,0.6,0.1c0.3,0,0.5-0.1,0.7-0.2c0.2-0.1,0.3-0.2,0.3-0.2l0.4,0.7c0,0-0.1,0.1-0.2,0.2
	c-0.1,0.1-0.2,0.1-0.3,0.2s-0.3,0.1-0.4,0.2c-0.2,0-0.4,0.1-0.6,0.1c-0.3,0-0.6-0.1-0.9-0.2c-0.3-0.1-0.5-0.3-0.7-0.5
	s-0.4-0.5-0.5-0.9S83,69.4,83,68.8c0-0.5,0.1-1,0.2-1.4c0.1-0.4,0.3-0.7,0.6-0.9c0.2-0.2,0.5-0.4,0.8-0.5c0.3-0.1,0.6-0.2,0.9-0.2
	c0.2,0,0.4,0,0.6,0.1c0.2,0,0.3,0.1,0.4,0.1c0.1,0.1,0.2,0.1,0.3,0.2c0.1,0.1,0.1,0.1,0.2,0.2L86.5,67.1z M87.5,68.8
	c0-0.5,0.1-1,0.2-1.4c0.1-0.4,0.3-0.7,0.5-0.9c0.2-0.2,0.5-0.4,0.7-0.5c0.3-0.1,0.6-0.2,0.9-0.2c0.3,0,0.6,0.1,0.9,0.2
	c0.3,0.1,0.5,0.3,0.7,0.5c0.2,0.2,0.4,0.6,0.5,0.9c0.1,0.4,0.2,0.8,0.2,1.4c0,0.5-0.1,1-0.2,1.4c-0.1,0.4-0.3,0.7-0.5,0.9
	c-0.2,0.2-0.5,0.4-0.7,0.5c-0.3,0.1-0.6,0.2-0.9,0.2c-0.3,0-0.6-0.1-0.9-0.2s-0.5-0.3-0.7-0.5c-0.2-0.2-0.4-0.6-0.5-0.9
	C87.6,69.8,87.5,69.4,87.5,68.8z M91,68.8c0-0.8-0.1-1.3-0.3-1.7c-0.2-0.3-0.5-0.5-0.9-0.5c-0.4,0-0.7,0.2-0.9,0.5
	c-0.2,0.3-0.3,0.9-0.3,1.7s0.1,1.3,0.3,1.6c0.2,0.3,0.5,0.5,0.9,0.5c0.4,0,0.7-0.2,0.9-0.5C90.9,70.2,91,69.6,91,68.8z M96.4,71.7
	V68c0-0.5-0.1-0.8-0.2-1c-0.2-0.2-0.4-0.3-0.7-0.3c-0.3,0-0.5,0.1-0.7,0.2s-0.3,0.3-0.5,0.4v4.4h-1V66h0.9v0.6h0
	c0,0,0.1-0.1,0.2-0.2c0.1-0.1,0.2-0.2,0.3-0.3c0.1-0.1,0.3-0.2,0.5-0.2c0.2-0.1,0.4-0.1,0.6-0.1c0.3,0,0.5,0,0.7,0.1
	c0.2,0.1,0.4,0.2,0.5,0.4c0.1,0.2,0.3,0.4,0.3,0.6c0.1,0.3,0.1,0.6,0.1,1v3.7H96.4z M98.5,68.8c0-0.5,0.1-1,0.2-1.4
	c0.1-0.4,0.3-0.7,0.5-0.9c0.2-0.2,0.5-0.4,0.7-0.5c0.3-0.1,0.6-0.2,0.9-0.2c0.3,0,0.6,0.1,0.9,0.2c0.3,0.1,0.5,0.3,0.7,0.5
	c0.2,0.2,0.4,0.6,0.5,0.9c0.1,0.4,0.2,0.8,0.2,1.4c0,0.5-0.1,1-0.2,1.4c-0.1,0.4-0.3,0.7-0.5,0.9c-0.2,0.2-0.5,0.4-0.7,0.5
	c-0.3,0.1-0.6,0.2-0.9,0.2c-0.3,0-0.6-0.1-0.9-0.2s-0.5-0.3-0.7-0.5c-0.2-0.2-0.4-0.6-0.5-0.9C98.6,69.8,98.5,69.4,98.5,68.8z
	 M102,68.8c0-0.8-0.1-1.3-0.3-1.7c-0.2-0.3-0.5-0.5-0.9-0.5s-0.7,0.2-0.9,0.5c-0.2,0.3-0.3,0.9-0.3,1.7s0.1,1.3,0.3,1.6
	c0.2,0.3,0.5,0.5,0.9,0.5c0.4,0,0.7-0.2,0.9-0.5C101.9,70.2,102,69.6,102,68.8z M107.2,71.7V68c0-0.5-0.1-0.8-0.2-1
	c-0.1-0.2-0.4-0.3-0.7-0.3c-0.2,0-0.3,0-0.4,0.1c-0.1,0-0.2,0.1-0.3,0.1c-0.1,0.1-0.2,0.1-0.2,0.2c-0.1,0.1-0.1,0.1-0.2,0.2v4.4h-1
	V66h0.9v0.6h0c0-0.1,0.1-0.1,0.2-0.2c0.1-0.1,0.2-0.2,0.3-0.3c0.1-0.1,0.3-0.2,0.4-0.2c0.2-0.1,0.3-0.1,0.5-0.1
	c0.7,0,1.1,0.3,1.4,0.8c0.1-0.1,0.1-0.2,0.2-0.3c0.1-0.1,0.2-0.2,0.3-0.2c0.1-0.1,0.3-0.1,0.4-0.2s0.3-0.1,0.5-0.1
	c1.2,0,1.7,0.7,1.7,2v3.8h-1V68c0-0.5-0.1-0.8-0.2-1c-0.2-0.2-0.4-0.3-0.7-0.3c-0.3,0-0.5,0.1-0.7,0.2c-0.2,0.1-0.3,0.3-0.4,0.4
	c0,0.1,0,0.2,0,0.3c0,0.1,0,0.2,0,0.3v3.8H107.2z M113.6,71.7h-1V66h1V71.7z M113.1,64.6c-0.2,0-0.4-0.1-0.5-0.2
	c-0.1-0.1-0.2-0.3-0.2-0.5c0-0.2,0.1-0.4,0.2-0.5c0.1-0.1,0.3-0.2,0.5-0.2c0.2,0,0.3,0.1,0.5,0.2c0.1,0.1,0.2,0.3,0.2,0.5
	c0,0.2-0.1,0.4-0.2,0.5C113.5,64.5,113.3,64.6,113.1,64.6z M118.3,67.1c0,0-0.1-0.1-0.1-0.1c-0.1,0-0.1-0.1-0.2-0.1
	s-0.2-0.1-0.3-0.1s-0.2-0.1-0.4-0.1c-0.2,0-0.4,0-0.6,0.1c-0.2,0.1-0.3,0.2-0.5,0.4c-0.1,0.2-0.2,0.4-0.3,0.6
	c-0.1,0.3-0.1,0.6-0.1,1c0,0.4,0,0.8,0.1,1.1c0.1,0.3,0.2,0.5,0.3,0.7c0.1,0.2,0.3,0.3,0.4,0.4c0.2,0.1,0.4,0.1,0.6,0.1
	c0.3,0,0.5-0.1,0.7-0.2c0.2-0.1,0.3-0.2,0.3-0.2l0.4,0.7c0,0-0.1,0.1-0.2,0.2c-0.1,0.1-0.2,0.1-0.3,0.2s-0.3,0.1-0.4,0.2
	c-0.2,0-0.4,0.1-0.6,0.1c-0.3,0-0.6-0.1-0.9-0.2c-0.3-0.1-0.5-0.3-0.7-0.5s-0.4-0.5-0.5-0.9s-0.2-0.9-0.2-1.4c0-0.5,0.1-1,0.2-1.4
	c0.1-0.4,0.3-0.7,0.6-0.9c0.2-0.2,0.5-0.4,0.8-0.5c0.3-0.1,0.6-0.2,0.9-0.2c0.2,0,0.4,0,0.6,0.1c0.2,0,0.3,0.1,0.4,0.1
	c0.1,0.1,0.2,0.1,0.3,0.2c0.1,0.1,0.1,0.1,0.2,0.2L118.3,67.1z M127.5,71.7h-1.1l-0.7-2.6h-2.5l-0.7,2.6h-1l2.7-8.2h0.8L127.5,71.7z
	 M125.4,68.3l-0.6-2.2c-0.1-0.3-0.2-0.6-0.2-0.9c-0.1-0.3-0.1-0.5-0.1-0.7h0c0,0.2,0,0.4-0.1,0.7c-0.1,0.3-0.1,0.5-0.2,0.9l-0.7,2.3
	H125.4z M130.7,66.8h-1.2v4.9h-1v-4.9h-0.7v-0.6l0.7-0.1v-1.1c0-0.3,0-0.6,0.1-0.8c0.1-0.2,0.2-0.4,0.3-0.5c0.1-0.1,0.3-0.2,0.5-0.3
	c0.2-0.1,0.4-0.1,0.6-0.1c0.2,0,0.4,0,0.5,0.1c0.1,0.1,0.2,0.1,0.3,0.1l-0.2,0.8c0,0-0.1-0.1-0.2-0.1c-0.1,0-0.2-0.1-0.3-0.1
	c-0.2,0-0.4,0.1-0.5,0.2c-0.1,0.1-0.2,0.4-0.2,0.8v1h1.3L130.7,66.8z M134,66.8h-1.2v4.9h-1v-4.9h-0.7v-0.6l0.7-0.1v-1.1
	c0-0.3,0-0.6,0.1-0.8c0.1-0.2,0.2-0.4,0.3-0.5c0.1-0.1,0.3-0.2,0.5-0.3c0.2-0.1,0.4-0.1,0.6-0.1c0.2,0,0.4,0,0.5,0.1
	c0.1,0.1,0.2,0.1,0.3,0.1l-0.2,0.8c0,0-0.1-0.1-0.2-0.1c-0.1,0-0.2-0.1-0.3-0.1c-0.2,0-0.4,0.1-0.5,0.2s-0.2,0.4-0.2,0.8v1h1.3
	L134,66.8z M134.6,70.2c0-0.3,0.1-0.6,0.2-0.8c0.1-0.2,0.3-0.4,0.5-0.5c0.2-0.1,0.5-0.2,0.8-0.3c0.3-0.1,0.6-0.1,0.9-0.1h0.3v-0.5
	c0-0.5-0.1-0.8-0.3-1c-0.2-0.2-0.4-0.3-0.7-0.3c-0.3,0-0.5,0.1-0.7,0.2c-0.2,0.1-0.3,0.2-0.5,0.3l-0.4-0.6c0.1-0.1,0.1-0.1,0.2-0.2
	c0.1-0.1,0.2-0.2,0.4-0.2c0.1-0.1,0.3-0.1,0.5-0.2c0.2,0,0.4-0.1,0.6-0.1c0.6,0,1,0.2,1.3,0.5c0.3,0.3,0.5,0.8,0.5,1.6v2.6
	c0,0.2,0,0.5,0,0.7c0,0.2,0,0.4,0,0.5h-0.9l0-0.6h0c0,0.1-0.1,0.2-0.1,0.2c-0.1,0.1-0.1,0.2-0.2,0.2c-0.1,0.1-0.2,0.1-0.3,0.2
	c-0.1,0.1-0.3,0.1-0.5,0.1c-0.2,0-0.4,0-0.6-0.1c-0.2-0.1-0.3-0.2-0.5-0.3c-0.1-0.1-0.2-0.3-0.3-0.5
	C134.6,70.7,134.6,70.5,134.6,70.2z M136.3,71c0.1,0,0.3,0,0.4-0.1c0.1,0,0.2-0.1,0.3-0.1c0.1-0.1,0.1-0.1,0.2-0.2
	c0.1-0.1,0.1-0.1,0.1-0.2v-1.3l-0.3,0c-0.5,0-0.8,0.1-1,0.2c-0.2,0.1-0.4,0.4-0.4,0.7c0,0.3,0.1,0.5,0.2,0.7
	C135.9,70.9,136.1,71,136.3,71z M140.6,71.7h-1V66h1V71.7z M140.2,64.6c-0.2,0-0.4-0.1-0.5-0.2s-0.2-0.3-0.2-0.5
	c0-0.2,0.1-0.4,0.2-0.5s0.3-0.2,0.5-0.2c0.2,0,0.3,0.1,0.5,0.2c0.1,0.1,0.2,0.3,0.2,0.5c0,0.2-0.1,0.4-0.2,0.5
	C140.5,64.5,140.4,64.6,140.2,64.6z M144.6,66.8c0,0-0.1,0-0.2-0.1c-0.1,0-0.2,0-0.3,0c-0.3,0-0.5,0.1-0.7,0.2
	c-0.2,0.2-0.3,0.3-0.4,0.5v4.2h-1V66h0.9v0.8h0c0-0.1,0.1-0.2,0.2-0.3c0.1-0.1,0.1-0.2,0.2-0.3c0.1-0.1,0.2-0.1,0.3-0.2
	c0.1,0,0.3-0.1,0.5-0.1c0.1,0,0.2,0,0.3,0c0.1,0,0.1,0,0.2,0.1L144.6,66.8z M148,67.1c-0.1-0.1-0.2-0.2-0.3-0.3
	c-0.2-0.1-0.4-0.2-0.7-0.2c-0.3,0-0.4,0.1-0.6,0.2c-0.1,0.1-0.2,0.3-0.2,0.4c0,0.2,0.1,0.4,0.2,0.5c0.1,0.1,0.3,0.3,0.6,0.4l0.4,0.2
	c0.4,0.2,0.7,0.5,0.9,0.7c0.2,0.3,0.3,0.6,0.3,1c0,0.5-0.2,0.8-0.5,1.1c-0.3,0.3-0.8,0.5-1.4,0.5c-0.2,0-0.4,0-0.6-0.1
	s-0.3-0.1-0.5-0.2c-0.1-0.1-0.2-0.1-0.3-0.2c-0.1-0.1-0.2-0.1-0.2-0.2l0.5-0.8c0,0,0.1,0.1,0.2,0.2c0.1,0.1,0.1,0.1,0.2,0.2
	s0.2,0.1,0.3,0.1c0.1,0,0.3,0.1,0.4,0.1c0.3,0,0.5-0.1,0.7-0.2c0.2-0.1,0.2-0.3,0.2-0.5c0-0.1,0-0.3-0.1-0.4c0-0.1-0.1-0.2-0.2-0.3
	s-0.2-0.2-0.3-0.2c-0.1-0.1-0.2-0.2-0.4-0.2l-0.4-0.2c-0.4-0.2-0.6-0.5-0.8-0.7c-0.2-0.3-0.3-0.6-0.3-1c0-0.2,0-0.4,0.1-0.6
	c0.1-0.2,0.2-0.3,0.4-0.5c0.2-0.1,0.3-0.2,0.5-0.3c0.2-0.1,0.4-0.1,0.6-0.1c0.2,0,0.4,0,0.6,0.1c0.2,0,0.3,0.1,0.4,0.2
	c0.1,0.1,0.2,0.1,0.3,0.2c0.1,0.1,0.1,0.1,0.2,0.2L148,67.1z M63,82.2c0-0.3,0.1-0.6,0.2-0.8s0.3-0.4,0.5-0.5
	c0.2-0.1,0.5-0.2,0.8-0.3c0.3-0.1,0.6-0.1,0.9-0.1h0.3v-0.5c0-0.5-0.1-0.8-0.3-1c-0.2-0.2-0.4-0.3-0.7-0.3c-0.3,0-0.5,0.1-0.7,0.2
	c-0.2,0.1-0.3,0.2-0.5,0.3l-0.4-0.6c0.1-0.1,0.1-0.1,0.2-0.2c0.1-0.1,0.2-0.2,0.4-0.2c0.1-0.1,0.3-0.1,0.5-0.2
	c0.2,0,0.4-0.1,0.6-0.1c0.6,0,1,0.2,1.3,0.5c0.3,0.3,0.5,0.8,0.5,1.6v2.6c0,0.2,0,0.5,0,0.7c0,0.2,0,0.4,0,0.5h-0.9l0-0.6h0
	c0,0.1-0.1,0.2-0.1,0.2c-0.1,0.1-0.1,0.2-0.2,0.2c-0.1,0.1-0.2,0.1-0.3,0.2c-0.1,0.1-0.3,0.1-0.5,0.1c-0.2,0-0.4,0-0.6-0.1
	c-0.2-0.1-0.3-0.2-0.5-0.3c-0.1-0.1-0.2-0.3-0.3-0.5C63,82.7,63,82.5,63,82.2z M64.7,83c0.1,0,0.3,0,0.4-0.1c0.1,0,0.2-0.1,0.3-0.1
	c0.1-0.1,0.1-0.1,0.2-0.2c0.1-0.1,0.1-0.1,0.1-0.2v-1.3l-0.3,0c-0.5,0-0.8,0.1-1,0.2c-0.2,0.1-0.4,0.4-0.4,0.7
	c0,0.3,0.1,0.5,0.2,0.7C64.3,82.9,64.5,83,64.7,83z M71.2,83.7V80c0-0.5-0.1-0.8-0.2-1c-0.2-0.2-0.4-0.3-0.7-0.3
	c-0.3,0-0.5,0.1-0.7,0.2s-0.3,0.3-0.5,0.4v4.4h-1V78H69v0.6h0c0,0,0.1-0.1,0.2-0.2c0.1-0.1,0.2-0.2,0.3-0.3c0.1-0.1,0.3-0.2,0.5-0.2
	s0.4-0.1,0.6-0.1c0.3,0,0.5,0,0.7,0.1c0.2,0.1,0.4,0.2,0.5,0.4c0.1,0.2,0.3,0.4,0.3,0.6c0.1,0.3,0.1,0.6,0.1,1v3.7H71.2z M73.3,80.9
	c0-0.6,0.1-1.1,0.2-1.5c0.2-0.4,0.3-0.7,0.6-0.9c0.2-0.2,0.5-0.4,0.8-0.5c0.3-0.1,0.6-0.1,0.9-0.1c0.2,0,0.3,0,0.5,0
	c0.1,0,0.2,0.1,0.3,0.1v-2.7l1-0.1v8.5h-0.9v-0.6h0c0,0-0.1,0.1-0.1,0.2c-0.1,0.1-0.2,0.2-0.3,0.2c-0.1,0.1-0.2,0.2-0.4,0.2
	c-0.2,0.1-0.4,0.1-0.6,0.1c-0.3,0-0.5-0.1-0.8-0.2c-0.2-0.1-0.5-0.3-0.6-0.5c-0.2-0.2-0.3-0.5-0.4-0.9
	C73.4,81.9,73.3,81.5,73.3,80.9z M75.6,83c0.2,0,0.3,0,0.4-0.1c0.1,0,0.2-0.1,0.3-0.1c0.1-0.1,0.2-0.1,0.2-0.2
	c0.1-0.1,0.1-0.1,0.1-0.2v-3.5c-0.1-0.1-0.2-0.1-0.3-0.1c-0.1,0-0.3-0.1-0.4-0.1c-0.2,0-0.4,0-0.6,0.1c-0.2,0.1-0.4,0.2-0.5,0.4
	s-0.3,0.4-0.3,0.7c-0.1,0.3-0.1,0.6-0.1,1c0,0.4,0,0.7,0.1,1c0.1,0.3,0.2,0.5,0.3,0.6c0.1,0.2,0.3,0.3,0.4,0.4
	C75.3,82.9,75.4,83,75.6,83z M85.8,76.3h-2.9v2.8h2.7V80h-2.7v2.9h3.2L86,83.7h-4.2v-8.2h4L85.8,76.3z M90.4,83.7V80
	c0-0.5-0.1-0.8-0.2-1c-0.2-0.2-0.4-0.3-0.7-0.3c-0.3,0-0.5,0.1-0.7,0.2s-0.3,0.3-0.5,0.4v4.4h-1V78h0.9v0.6h0c0,0,0.1-0.1,0.2-0.2
	c0.1-0.1,0.2-0.2,0.3-0.3c0.1-0.1,0.3-0.2,0.5-0.2s0.4-0.1,0.6-0.1c0.3,0,0.5,0,0.7,0.1c0.2,0.1,0.4,0.2,0.5,0.4
	c0.1,0.2,0.3,0.4,0.3,0.6c0.1,0.3,0.1,0.6,0.1,1v3.7H90.4z M96.5,79.9c0,0.2,0,0.5,0,0.6c0,0.2,0,0.3,0,0.5h-2.9
	c0,0.7,0.2,1.2,0.4,1.5c0.3,0.3,0.6,0.5,1.1,0.5c0.2,0,0.3,0,0.5-0.1c0.1,0,0.3-0.1,0.4-0.1c0.1-0.1,0.2-0.1,0.2-0.2
	c0.1-0.1,0.1-0.1,0.1-0.1l0.4,0.7c0,0-0.1,0.1-0.2,0.2c-0.1,0.1-0.2,0.2-0.3,0.2c-0.1,0.1-0.3,0.1-0.5,0.2c-0.2,0.1-0.4,0.1-0.7,0.1
	c-0.4,0-0.7-0.1-1-0.2c-0.3-0.1-0.5-0.3-0.7-0.6s-0.4-0.6-0.5-1c-0.1-0.4-0.2-0.8-0.2-1.4c0-0.5,0.1-0.9,0.2-1.3
	c0.1-0.4,0.3-0.7,0.5-0.9c0.2-0.2,0.4-0.4,0.7-0.5c0.3-0.1,0.5-0.2,0.8-0.2c0.5,0,1,0.2,1.3,0.5S96.5,79.2,96.5,79.9z M94.6,78.6
	c-0.3,0-0.6,0.1-0.8,0.4c-0.2,0.3-0.3,0.7-0.4,1.2h2.1c0,0,0-0.1,0-0.2c0-0.1,0-0.2,0-0.2c0-0.4-0.1-0.7-0.2-0.9
	C95.2,78.7,94.9,78.6,94.6,78.6z M100.2,78.8c0,0-0.1,0-0.2-0.1c-0.1,0-0.2,0-0.3,0c-0.3,0-0.5,0.1-0.7,0.2
	c-0.2,0.2-0.3,0.3-0.4,0.5v4.2h-1V78h0.9v0.8h0c0-0.1,0.1-0.2,0.2-0.3c0.1-0.1,0.1-0.2,0.2-0.3c0.1-0.1,0.2-0.1,0.3-0.2
	c0.1,0,0.3-0.1,0.5-0.1c0.1,0,0.2,0,0.3,0c0.1,0,0.1,0,0.2,0.1L100.2,78.8z M105.2,78.7h-0.7c0.2,0.3,0.3,0.6,0.3,1
	c0,0.3,0,0.6-0.1,0.8c-0.1,0.2-0.2,0.4-0.4,0.6c-0.2,0.2-0.4,0.3-0.6,0.4c-0.2,0.1-0.5,0.1-0.8,0.1c-0.1,0-0.1,0-0.2,0s-0.1,0-0.2,0
	c-0.1,0-0.2,0.1-0.3,0.2c-0.1,0.1-0.2,0.2-0.2,0.3c0,0.1,0,0.2,0.1,0.3c0.1,0.1,0.2,0.1,0.4,0.1h0.7c0.3,0,0.5,0,0.7,0.1
	c0.2,0.1,0.4,0.1,0.6,0.3c0.2,0.1,0.3,0.3,0.4,0.5s0.1,0.4,0.1,0.7c0,0.3-0.1,0.6-0.2,0.8c-0.1,0.3-0.3,0.5-0.6,0.7
	c-0.2,0.2-0.5,0.3-0.9,0.4c-0.3,0.1-0.7,0.2-1.1,0.2c-0.6,0-1.1-0.1-1.4-0.4c-0.3-0.3-0.5-0.6-0.5-1.1c0-0.2,0-0.4,0.1-0.6
	c0.1-0.2,0.2-0.3,0.3-0.4c0.1-0.1,0.2-0.2,0.3-0.3c0.1-0.1,0.2-0.1,0.3-0.2v0c-0.2-0.2-0.4-0.4-0.4-0.8c0-0.2,0-0.3,0.1-0.4
	c0.1-0.1,0.1-0.2,0.2-0.3c0.1-0.1,0.2-0.1,0.2-0.2c0.1,0,0.1-0.1,0.2-0.1v0c-0.3-0.1-0.5-0.3-0.7-0.6c-0.2-0.3-0.3-0.7-0.3-1.1
	c0-0.3,0.1-0.6,0.2-0.8c0.1-0.2,0.2-0.4,0.4-0.6c0.2-0.2,0.4-0.3,0.6-0.4c0.2-0.1,0.5-0.1,0.8-0.1s0.5,0,0.8,0.1h1.7L105.2,78.7z
	 M102.5,83.5c-0.2,0-0.3,0-0.4,0c-0.1,0-0.1,0.1-0.2,0.1c-0.1,0.1-0.1,0.1-0.2,0.2c-0.1,0.1-0.1,0.2-0.1,0.3c0,0.1-0.1,0.2-0.1,0.4
	c0,0.6,0.3,0.9,1,0.9c0.6,0,1-0.1,1.3-0.3c0.3-0.2,0.4-0.5,0.4-0.8c0-0.3-0.1-0.5-0.3-0.6c-0.2-0.1-0.4-0.2-0.7-0.2H102.5z
	 M103.8,79.8c0-0.4-0.1-0.7-0.3-0.9c-0.2-0.2-0.4-0.3-0.7-0.3c-0.3,0-0.5,0.1-0.7,0.3c-0.2,0.2-0.3,0.5-0.3,0.9s0.1,0.7,0.3,0.9
	c0.2,0.2,0.4,0.3,0.7,0.3c0.3,0,0.5-0.1,0.7-0.3C103.7,80.5,103.8,80.2,103.8,79.8z M110.1,78l-1.8,6c-0.2,0.7-0.5,1.2-0.8,1.6
	c-0.3,0.4-0.7,0.5-1.3,0.5c-0.1,0-0.2,0-0.3,0c-0.1,0-0.1,0-0.2-0.1v-0.8c0,0,0.1,0,0.2,0.1c0.1,0,0.1,0,0.2,0
	c0.3,0,0.6-0.1,0.8-0.3c0.2-0.2,0.3-0.5,0.5-1l0.1-0.3l-1.8-5.7h1l0.9,3.2c0.1,0.3,0.2,0.6,0.2,0.9c0.1,0.3,0.1,0.5,0.1,0.8h0
	c0-0.2,0.1-0.5,0.1-0.7s0.1-0.6,0.2-0.9l0.8-3.2H110.1z"/>
<g>
	<path class="st3" d="M43.5,58.7c1,1.6,1.8,1.6,3,1.6c-1-0.8-1.7-1.8-2-2.3l-1.9-3c-0.2-0.9-0.7-1.8-1.4-2.4
		c0.2-0.1,0.4-0.2,0.6-0.3c-1.2,0-2.4-0.6-3.1-0.6c-0.4,0-0.7,0.3-0.7,0.6c0,0.4,0.4,0.8,1.1,0.8c0.2,0,0.4,0,0.6-0.1
		c0.4,0.5,0.7,1,0.7,1.7c0,1.3-1.6,2.3-3.1,2.3c-0.1,0-0.2,0-0.3,0c-0.1-0.3-0.6-0.9-0.6-1.5c0-1,0.7-1.9,0.7-2.9
		c0-0.6-0.3-1-0.4-1.2c0.2-0.2,0.4-0.4,0.5-0.6c-0.1,0-0.2,0.1-0.4,0.1c-0.8,0-1.4-0.2-2-0.2c-0.3,0-0.4,0.1-0.4,0.2
		c0,0,0,0.1,0,0.1c-0.1-0.1-0.2-0.1-0.4-0.1c-0.2,0-0.4-0.1-0.6-0.1c-0.7,0-1,0.3-1,0.6c0,0.2,0.2,0.6,0.4,0.9
		c0.3-0.1,0.6-0.2,0.8-0.2c0.4,0,0.7,0.4,0.9,0.8c-0.3,0-0.3,0-0.6,0c-0.7,0-1.2-0.3-1.3-0.3c0,0,0,0,0,0c0,0.1,0.2,0.4,0.6,0.5
		c0.5,0.2,1.3,0.3,1.4,0.3c0,0-0.1,0.3-0.3,0.3c0,0-0.1,0-0.1,0c-0.5-0.1-0.7-0.2-1.4-0.4c0,0,0,0,0,0c0,0.3,0.7,0.9,1.3,1.1
		c-0.5,0.7-1.2,1.4-1.5,2.4c-0.1,0-0.2,0-0.3,0c-1.6,0-3.1-1-3.1-2.3c0-0.7,0.3-1.2,0.7-1.7c0.2,0,0.4,0.1,0.6,0.1
		c0.7,0,1.1-0.4,1.1-0.8c0-0.3-0.3-0.6-0.7-0.6c-0.7,0-1.9,0.6-3.1,0.6c0.1,0.1,0.3,0.2,0.6,0.3c-0.7,0.6-1.2,1.5-1.4,2.4l-1.9,3
		c-0.3,0.5-1,1.5-2,2.3c1.2,0,2,0,3-1.6l1-1.5c0.1,0.2,0.2,0.4,0.3,0.6l-1.9,3.1c-0.3,0.5-1,1.5-2,2.3c1.2,0,2,0,3-1.6l1.6-2.6
		c0.1,0.1,0.3,0.3,0.4,0.4l-2.3,3.7c-0.3,0.5-1,1.5-2,2.2c1.2,0,2,0,3-1.6l2.3-3.6c0.1,0.1,0.3,0.2,0.5,0.3l-2.8,4.4
		c-0.3,0.5-1,1.5-2,2.2c1.2,0,2,0,3-1.6l2.8-4.5c0.2,0.1,0.3,0.1,0.5,0.2l-3.2,5.1c-0.3,0.5-1,1.5-2,2.2c1.2,0,2,0,3-1.6l3.4-5.5
		c0,0,0.1,0,0.1,0c0.1,0.3,0.2,0.6,0.2,0.8c0,1.7-1.1,3.2-2.5,4.4c0.1,0,0.2,0.1,0.4,0.1c0.3,0,0.5,0,0.6,0c-0.3,0.7-1,1.6-1.3,2.1
		c-0.4-0.1-1.1-0.1-1.5-0.1c-0.4,0-0.5,0.3-0.5,0.5c0,0.4,0.2,0.7,0.4,0.9c0.1-0.2,0.2-0.5,1.1-0.5c0,0,0,0,0.1,0
		c-0.2,0.3-1,0.9-1,1.4c0,0.3,0.4,0.8,0.8,0.8c0-0.1,0-0.2,0-0.3c0-0.4,0.3-0.9,0.6-1.2c0,0.1,0,0.1,0,0.2c0,0.9,0.1,1.4,0.7,1.4
		c0.3,0,0.5-0.2,0.6-0.2c-0.4-0.4-0.4-0.6-0.4-1.2c0-0.1,0-0.3,0-0.5c0-0.1,0-0.3,0-0.4c0.2,0,0.3,0,0.5,0c0,0,0.8-0.1,1,0.4
		c0.2-0.2,0.6-0.5,0.6-0.8c0-0.2-0.1-0.5-0.5-0.5c-0.2,0-0.7,0.1-1.1,0.1c0.1-0.3,0.6-1,1.1-1.6c0.1,0.2,0.2,0.4,0.4,0.6
		c0-0.4,0.2-1.5,0.8-2.1c0.1,0.4,0.2,0.9,0.2,1.8c0,2.3-0.6,4-1.7,4.3c0.2,0.3,0.5,0.5,0.8,0.5c0.4,0,0.7-0.5,0.9-0.9
		c0.1,0.3,0.5,1.2,0.8,1.2c0.3,0,0.7-0.8,0.8-1.2c0.2,0.5,0.5,0.9,0.9,0.9c0.3,0,0.7-0.2,0.8-0.5c-1.2-0.3-1.7-2-1.7-4.3
		c0-1,0.1-1.4,0.1-1.8c0.6,0.7,0.8,1.8,0.8,2.1c0.2-0.2,0.3-0.4,0.4-0.6c0.4,0.5,1,1.3,1.1,1.6c-0.4,0-0.9-0.1-1.1-0.1
		c-0.4,0-0.5,0.2-0.5,0.5c0,0.3,0.3,0.6,0.6,0.8c0.2-0.4,1-0.4,1-0.4c0.2,0,0.2,0,0.5,0c0,0.1,0,0.3,0,0.4c0,0.2,0,0.3,0,0.5
		c0,0.5,0,0.8-0.4,1.2c0.1,0,0.3,0.2,0.6,0.2c0.6,0,0.7-0.4,0.7-1.4c0-0.1,0-0.1,0-0.2c0.3,0.3,0.6,0.8,0.6,1.2c0,0.1,0,0.2,0,0.3
		c0.5,0,0.8-0.5,0.8-0.8c0-0.5-0.7-1.1-1-1.4c0,0,0.1,0,0.1,0c0.8,0,1,0.3,1.1,0.5c0.2-0.2,0.4-0.5,0.4-0.9c0-0.2,0-0.5-0.5-0.5
		c-0.4,0-1.1,0.1-1.5,0.1c-0.3-0.5-1-1.4-1.3-2.1c0.1,0,0.3,0,0.6,0c0.1,0,0.3,0,0.4-0.1c-1.4-1.2-2.5-2.7-2.5-4.4
		c0-0.3,0.1-0.6,0.2-0.8c0,0,0.1,0,0.1,0l3.4,5.5c1,1.6,1.8,1.6,3,1.6c-1-0.8-1.7-1.8-2-2.2L38,60.9c0.2-0.1,0.3-0.1,0.5-0.2
		l2.8,4.5c1,1.6,1.8,1.6,3,1.6c-1-0.8-1.7-1.7-2-2.2l-2.8-4.4c0.2-0.1,0.3-0.2,0.5-0.3l2.3,3.6c1,1.6,1.8,1.6,3,1.6
		c-1-0.8-1.7-1.7-2-2.2l-2.3-3.7c0.1-0.1,0.3-0.2,0.4-0.4l1.6,2.6c1,1.6,1.8,1.6,3,1.6c-1-0.8-1.7-1.7-2-2.3l-1.9-3.1
		c0.1-0.2,0.2-0.4,0.3-0.6L43.5,58.7z M28.2,55.2c0-1.1,0.8-2,1.1-2.3c0.1,0,0.1,0,0.2,0c-0.3,0.4-0.9,1-0.9,1.9
		c0,1.7,1.8,3.1,3.8,3.1c0,0.1,0,0.3,0,0.4c0,0.2,0,0.5,0,0.7C30.2,59,28.2,57.2,28.2,55.2z M31.3,68.9L31.3,68.9L31.3,68.9
		c0.7,0,1,0,1.2,0c0.1,0,0.2,0,0.3,0c0.2,0,0.3,0,0.3,0.2c0,0.1-0.2,0.4-0.3,0.5c-0.2-0.2-0.6-0.3-1-0.3c-0.2,0-0.5,0-0.7,0.1l0,0
		l0,0l0,0.1c0,0.1,0,0.3,0,0.5l0,0.2l0,0.3c0,0.5,0.1,0.9,0.3,1.1c0,0-0.1,0-0.2,0c-0.3,0-0.4-0.1-0.4-1.1c0-0.2,0-0.4,0-0.5l0-0.2
		l0,0c-0.5,0.4-1,1.1-1.1,1.6c-0.2-0.1-0.3-0.3-0.3-0.5c0-0.3,0.4-0.7,0.9-1.2l0.3-0.3l0,0l-0.1,0c-0.1,0-0.3-0.1-0.5-0.1
		c-0.5,0-0.9,0.1-1.1,0.3c-0.1-0.1-0.1-0.4-0.1-0.5c0-0.1,0-0.2,0.1-0.2c0,0,0.1,0,0.2,0h0c0.6,0,1.3,0.1,1.6,0.2l0,0l0,0
		c0-0.1,1.2-1.6,1.5-2.4c0.1,0,0.1,0,0.2,0c0.2,0,0.3,0.2,0.4,0.4C31.9,67.7,31.4,68.4,31.3,68.9z M37.4,66.5c0.1,0,0.2,0,0.2,0
		c0.3,0.8,1.4,2.3,1.5,2.4l0,0l0,0c0.3,0,1-0.2,1.6-0.2h0c0.1,0,0.1,0,0.2,0c0,0,0.1,0.1,0.1,0.2c0,0.1-0.1,0.4-0.1,0.5
		c-0.2-0.2-0.6-0.3-1.1-0.3c-0.2,0-0.4,0-0.5,0.1l0,0l0,0l0.3,0.3c0.5,0.5,0.9,0.9,0.9,1.2c0,0.2-0.2,0.4-0.3,0.5
		c0-0.5-0.5-1.2-1.1-1.6l0,0l0,0.2c0,0.1,0,0.3,0,0.5c0,1-0.1,1.1-0.4,1.1c-0.1,0-0.1,0-0.2,0c0.2-0.2,0.3-0.5,0.3-1.1l0-0.3l0-0.2
		c0-0.2,0-0.4,0-0.5l0-0.1l-0.1,0c-0.2,0-0.5-0.1-0.7-0.1c-0.5,0-0.8,0-1,0.3c-0.2-0.1-0.3-0.3-0.3-0.5c0-0.2,0.1-0.2,0.3-0.2
		c0.1,0,0.2,0,0.3,0c0.2,0,0.5,0.1,1.2,0.1h0l0,0c-0.2-0.5-0.6-1.1-1.3-2C37.1,66.6,37.2,66.5,37.4,66.5z M34.8,53.2
		c-0.1-0.3-0.2-0.6-0.4-0.8c-0.2-0.2-0.5-0.5-0.9-0.5c-0.2,0-0.5,0.1-0.7,0.2c-0.1-0.1-0.2-0.4-0.2-0.6c0-0.1,0.2-0.3,0.7-0.3
		c1,0,1.6,0.5,1.6,1.2C35,52.7,34.9,52.9,34.8,53.2z M35.2,52.1c0-0.2-0.1-0.4-0.2-0.6c0-0.2,0.1-0.4,0.4-0.2c-0.2,0.2,0,0.5,0,0.5
		s0.4-0.2,0.3-0.4C36.2,51.5,35.8,52.2,35.2,52.1z M37.3,59c0-0.2,0-0.5,0-0.7c0-0.1,0-0.3,0-0.4c2,0,3.7-1.5,3.7-3.1
		c0-0.8-0.5-1.5-0.9-1.9c0.1,0,0.1,0,0.2,0c0.3,0.3,1.1,1.2,1.1,2.3C41.5,57.2,39.5,59,37.3,59z"/>
</g>
</svg>
