<?xml version="1.0" encoding="UTF-8" standalone="no"?><!DOCTYPE svg PUBLIC "-//W3C//DTD SVG 1.1//EN" "http://www.w3.org/Graphics/SVG/1.1/DTD/svg11.dtd"><svg width="100%" height="100%" viewBox="0 0 875 319" version="1.1" xmlns="http://www.w3.org/2000/svg" xmlns:xlink="http://www.w3.org/1999/xlink" xml:space="preserve" xmlns:serif="http://www.serif.com/" style="fill-rule:evenodd;clip-rule:evenodd;stroke-linejoin:round;stroke-miterlimit:2;"><g id="logo"><path d="M400.85,273.782c0.516,0.503 1.203,0.753 2.06,0.753c1.211,-0 2.222,-0.421 3.034,-1.263c0.812,-0.842 1.218,-2.178 1.218,-4.009l0,-1.018c-0.797,0.442 -1.964,0.738 -3.499,0.886c-2.392,0.207 -3.588,1.136 -3.588,2.791c0,0.738 0.258,1.358 0.775,1.86m-4.696,3.633c-1.373,-1.27 -2.06,-2.953 -2.06,-5.051c0,-4.046 2.747,-6.394 8.24,-7.043c1.329,-0.147 2.333,-0.303 3.013,-0.466c0.678,-0.161 1.144,-0.346 1.395,-0.553c0.251,-0.207 0.377,-0.502 0.377,-0.886c0,-0.709 -0.363,-1.292 -1.086,-1.75c-0.724,-0.457 -1.794,-0.687 -3.212,-0.687c-2.451,-0 -4.947,0.871 -7.487,2.615l0,-5.539c1.093,-0.709 2.341,-1.292 3.744,-1.75c1.402,-0.457 2.916,-0.686 4.541,-0.686c3.248,-0 5.685,0.812 7.309,2.436c1.624,1.625 2.437,3.899 2.437,6.823l0,13.777l-5.316,-0l-0.178,-2.835c-0.649,1.122 -1.513,1.986 -2.591,2.592c-1.078,0.604 -2.341,0.907 -3.788,0.907c-2.185,-0 -3.965,-0.635 -5.338,-1.904" style="fill:#59595c;fill-rule:nonzero;"/><path d="M418.415,256.284l6.069,-0l-0,3.189c0.709,-1.24 1.639,-2.193 2.791,-2.857c1.152,-0.665 2.466,-0.997 3.943,-0.997c2.746,-0 4.813,0.791 6.202,2.37c1.388,1.58 2.082,3.906 2.082,6.978l-0,13.688l-6.512,-0l-0,-12.847c-0,-3.042 -1.27,-4.563 -3.81,-4.563c-1.3,-0 -2.333,0.406 -3.101,1.219c-0.768,0.812 -1.152,1.897 -1.152,3.256l-0,12.935l-6.512,-0l-0,-22.371Z" style="fill:#59595c;fill-rule:nonzero;"/><path d="M451.773,272.098c1.004,1.182 2.348,1.772 4.032,1.772c1.683,0 3.027,-0.598 4.031,-1.793c1.003,-1.197 1.506,-2.71 1.506,-4.541c-0,-1.89 -0.503,-3.441 -1.506,-4.652c-1.004,-1.211 -2.348,-1.816 -4.031,-1.816c-1.684,0 -3.028,0.613 -4.032,1.838c-1.004,1.226 -1.506,2.798 -1.506,4.718c-0,1.802 0.502,3.293 1.506,4.474m-3.123,5.893c-1.55,-0.887 -2.791,-2.216 -3.721,-3.988c-0.93,-1.772 -1.396,-3.957 -1.396,-6.556c-0,-2.599 0.466,-4.785 1.396,-6.557c0.93,-1.771 2.171,-3.093 3.721,-3.965c1.551,-0.87 3.27,-1.306 5.161,-1.306c1.654,0 3.115,0.391 4.386,1.173c1.269,0.784 2.288,1.899 3.056,3.345l-0.354,-4.518l-0,-8.994l6.512,0l-0,32.03l-6.069,0l-0,-3.677c-0.768,1.389 -1.809,2.459 -3.123,3.212c-1.315,0.753 -2.784,1.129 -4.408,1.129c-1.891,0 -3.61,-0.443 -5.161,-1.328" style="fill:#59595c;fill-rule:nonzero;"/><path d="M493.016,263.504c1.801,0 3.16,-0.413 4.075,-1.24c0.915,-0.827 1.374,-2.053 1.374,-3.678c0,-1.623 -0.459,-2.85 -1.374,-3.677c-0.915,-0.826 -2.274,-1.24 -4.075,-1.24l-3.013,0l0,9.835l3.013,0Zm-9.968,-15.859l10.145,0c4.164,0 7.309,0.922 9.436,2.768c2.126,1.846 3.189,4.57 3.189,8.173c0,3.604 -1.063,6.328 -3.189,8.174c-2.127,1.846 -5.272,2.768 -9.436,2.768l-3.19,0l0,9.126l-6.955,0l0,-31.009Z" style="fill:#59595c;fill-rule:nonzero;"/><path d="M510.248,246.758l6.512,0l0,9.525l-0.354,3.057c0.709,-1.182 1.639,-2.097 2.791,-2.747c1.152,-0.649 2.436,-0.975 3.854,-0.975c2.746,0 4.813,0.791 6.202,2.37c1.388,1.581 2.082,3.907 2.082,6.978l0,13.688l-6.512,0l0,-12.846c0,-3.042 -1.27,-4.564 -3.81,-4.564c-1.3,0 -2.333,0.407 -3.101,1.219c-0.768,0.813 -1.152,1.898 -1.152,3.256l0,12.935l-6.512,0l0,-31.896Z" style="fill:#59595c;fill-rule:nonzero;"/><path d="M543.651,278.965l-10.012,-22.682l7.354,0l5.582,15.372l5.493,-15.372l7.31,0l-8.063,18.96c-1.241,2.953 -2.363,5.39 -3.367,7.31c-1.005,1.919 -2.2,3.868 -3.589,5.848l-6.866,0c2.451,-2.835 4.504,-5.981 6.158,-9.436" style="fill:#59595c;fill-rule:nonzero;"/><path d="M564.693,278.788c-1.389,-0.354 -2.599,-0.871 -3.633,-1.551l0,-5.582c1.122,0.828 2.304,1.456 3.544,1.884c1.241,0.428 2.437,0.642 3.589,0.642c2.066,-0 3.101,-0.577 3.101,-1.728c0,-0.59 -0.2,-1.048 -0.599,-1.373c-0.398,-0.325 -1.203,-0.68 -2.414,-1.063l-2.348,-0.754c-1.654,-0.56 -2.909,-1.344 -3.765,-2.347c-0.857,-1.005 -1.285,-2.319 -1.285,-3.944c0,-1.358 0.332,-2.597 0.997,-3.721c0.665,-1.121 1.653,-2.007 2.968,-2.657c1.314,-0.651 2.902,-0.976 4.762,-0.976c2.451,0 4.637,0.577 6.557,1.728l0,5.76c-1.035,-0.709 -2.06,-1.255 -3.079,-1.639c-1.019,-0.385 -2.134,-0.577 -3.345,-0.577c-0.797,0 -1.455,0.171 -1.971,0.51c-0.517,0.339 -0.775,0.79 -0.775,1.351c0,0.56 0.161,0.99 0.487,1.285c0.324,0.296 0.856,0.546 1.595,0.752l2.525,0.709c2.155,0.62 3.706,1.477 4.651,2.569c0.945,1.093 1.418,2.526 1.418,4.297c0,2.038 -0.783,3.707 -2.348,5.006c-1.566,1.3 -3.751,1.949 -6.556,1.949c-1.329,0 -2.688,-0.177 -4.076,-0.531" style="fill:#59595c;fill-rule:nonzero;"/><path d="M581.881,256.284l6.512,0l-0,22.371l-6.512,0l-0,-22.371Zm0.532,-9.703c0.767,-0.767 1.683,-1.151 2.746,-1.151c1.034,0 1.927,0.384 2.681,1.151c0.753,0.769 1.129,1.669 1.129,2.703c-0,1.034 -0.384,1.934 -1.152,2.702c-0.768,0.768 -1.654,1.152 -2.658,1.152c-1.063,0 -1.979,-0.384 -2.746,-1.152c-0.769,-0.768 -1.152,-1.668 -1.152,-2.702c-0,-1.034 0.383,-1.934 1.152,-2.703" style="fill:#59595c;fill-rule:nonzero;"/><path d="M598.582,277.857c-1.832,-0.975 -3.242,-2.348 -4.23,-4.119c-0.991,-1.773 -1.485,-3.839 -1.485,-6.202c-0,-2.363 0.524,-4.445 1.573,-6.246c1.048,-1.802 2.488,-3.198 4.319,-4.187c1.831,-0.989 3.899,-1.484 6.202,-1.484c1.418,-0 2.643,0.126 3.677,0.377c1.033,0.251 2.052,0.672 3.057,1.262l-0,5.892c-1.861,-1.27 -3.766,-1.905 -5.715,-1.905c-1.949,-0 -3.5,0.561 -4.651,1.683c-1.152,1.123 -1.728,2.658 -1.728,4.608c-0,1.949 0.568,3.492 1.706,4.629c1.136,1.137 2.694,1.706 4.673,1.706c1.034,-0 2,-0.112 2.902,-0.332c0.9,-0.222 1.867,-0.628 2.901,-1.219l-0,5.759c-0.945,0.414 -1.949,0.723 -3.012,0.93c-1.063,0.206 -2.348,0.31 -3.854,0.31c-2.392,-0 -4.504,-0.487 -6.335,-1.462" style="fill:#59595c;fill-rule:nonzero;"/><path d="M618.871,278.788c-1.389,-0.354 -2.599,-0.871 -3.633,-1.551l-0,-5.582c1.122,0.828 2.304,1.456 3.544,1.884c1.241,0.428 2.437,0.642 3.589,0.642c2.066,-0 3.101,-0.577 3.101,-1.728c-0,-0.59 -0.2,-1.048 -0.599,-1.373c-0.398,-0.325 -1.203,-0.68 -2.414,-1.063l-2.348,-0.754c-1.654,-0.56 -2.909,-1.344 -3.765,-2.347c-0.857,-1.005 -1.285,-2.319 -1.285,-3.944c-0,-1.358 0.332,-2.597 0.997,-3.721c0.665,-1.121 1.653,-2.007 2.968,-2.657c1.314,-0.651 2.902,-0.976 4.762,-0.976c2.451,0 4.637,0.577 6.557,1.728l-0,5.76c-1.035,-0.709 -2.06,-1.255 -3.079,-1.639c-1.019,-0.385 -2.134,-0.577 -3.345,-0.577c-0.797,0 -1.455,0.171 -1.971,0.51c-0.517,0.339 -0.775,0.79 -0.775,1.351c-0,0.56 0.161,0.99 0.487,1.285c0.324,0.296 0.856,0.546 1.595,0.752l2.525,0.709c2.155,0.62 3.706,1.477 4.651,2.569c0.945,1.093 1.418,2.526 1.418,4.297c-0,2.038 -0.783,3.707 -2.348,5.006c-1.566,1.3 -3.751,1.949 -6.556,1.949c-1.329,0 -2.688,-0.177 -4.076,-0.531" style="fill:#59595c;fill-rule:nonzero;"/><rect x="364.682" y="0" width="2.77" height="318.61" style="fill:#59595c;"/><rect x="333.819" y="116.899" width="4.094" height="6.17" style="fill:#df3627;"/><rect x="323.854" y="104.259" width="4.125" height="8.537" style="fill:#df3627;"/><rect x="333.819" y="104.259" width="4.094" height="8.537" style="fill:#df3627;"/><rect x="323.855" y="97.429" width="14.058" height="2.726" style="fill:#df3627;"/><rect x="323.855" y="127.143" width="14.058" height="2.756" style="fill:#df3627;"/><rect x="323.855" y="116.899" width="4.125" height="6.17" style="fill:#df3627;"/><rect x="333.819" y="72.149" width="4.094" height="8.537" style="fill:#df3627;"/><rect x="323.855" y="65.291" width="14.058" height="2.755" style="fill:#df3627;"/><path d="M323.854,93.326l4.125,0l0,-6.5c0,-1.138 -0.934,-2.037 -2.077,-2.037c-1.145,0 -2.048,0.899 -2.048,2.037l0,6.5Z" style="fill:#df3627;fill-rule:nonzero;"/><rect x="316.961" y="40.009" width="20.952" height="2.726" style="fill:#df3627;"/><path d="M335.865,84.789c-1.144,0 -2.047,0.899 -2.047,2.037l0,6.5l4.094,0l0,-6.5c0,-1.138 -0.903,-2.037 -2.047,-2.037" style="fill:#df3627;fill-rule:nonzero;"/><rect x="323.854" y="72.149" width="4.125" height="8.537" style="fill:#df3627;"/><path d="M244.168,93.326l4.125,0l-0,-6.5c-0,-1.138 -0.934,-2.037 -2.077,-2.037c-1.144,0 -2.048,0.899 -2.048,2.037l-0,6.5Z" style="fill:#df3627;fill-rule:nonzero;"/><rect x="234.204" y="72.149" width="4.124" height="8.537" style="fill:#df3627;"/><path d="M298.085,26.138l-0,1.378l-0.004,-0l-0,0.499l2.743,-0l-0,-1.877c-0,-2.157 -1.444,-3.985 -3.432,-4.584l-0,-21.553l-2.74,-0l-0,24.1l1.356,-0c1.143,-0 2.077,0.929 2.077,2.037" style="fill:#df3627;fill-rule:nonzero;"/><rect x="264.068" y="72.149" width="4.124" height="8.537" style="fill:#df3627;"/><path d="M234.203,93.326l4.124,0l0,-6.5c0,-1.138 -0.933,-2.037 -2.077,-2.037c-1.144,0 -2.047,0.899 -2.047,2.037l0,6.5Z" style="fill:#df3627;fill-rule:nonzero;"/><rect x="234.204" y="116.899" width="4.124" height="6.17" style="fill:#df3627;"/><path d="M266.144,84.789c-1.144,0 -2.076,0.899 -2.076,2.037l0,6.5l4.124,0l0,-6.5c0,-1.138 -0.904,-2.037 -2.048,-2.037" style="fill:#df3627;fill-rule:nonzero;"/><rect x="254.134" y="72.149" width="4.094" height="8.537" style="fill:#df3627;"/><rect x="244.168" y="72.149" width="4.125" height="8.537" style="fill:#df3627;"/><path d="M254.133,93.326l4.094,0l-0,-6.5c-0,-1.138 -0.904,-2.037 -2.047,-2.037c-1.144,0 -2.047,0.899 -2.047,2.037l-0,6.5Z" style="fill:#df3627;fill-rule:nonzero;"/><path d="M230.08,72.149l-2.739,0l-0,57.75l40.851,0l-0,-2.756l-38.112,0l-0,-26.988l38.112,0l-0,-2.726l-38.112,0l-0,-25.28Z" style="fill:#df3627;fill-rule:nonzero;"/><rect x="234.204" y="104.259" width="4.124" height="8.537" style="fill:#df3627;"/><path d="M285.522,34.528l20.992,0l3.312,12.37l2.86,0l-4.05,-15.096l-25.236,0l-4.05,15.096l2.86,0l3.312,-12.37Z" style="fill:#df3627;fill-rule:nonzero;"/><rect x="264.068" y="104.259" width="4.124" height="8.537" style="fill:#df3627;"/><path d="M282.748,110.404l0,22.032l2.739,-0l0,-22.032c0,-3.385 -2.77,-6.14 -6.172,-6.14l-0.136,-0l0,2.733c0.12,-0 0.016,-0.008 0.136,-0.008c1.897,-0 3.433,1.528 3.433,3.415" style="fill:#df3627;fill-rule:nonzero;"/><rect x="264.068" y="116.899" width="4.124" height="6.17" style="fill:#df3627;"/><rect x="244.168" y="116.899" width="4.125" height="6.17" style="fill:#df3627;"/><rect x="244.168" y="104.259" width="4.125" height="8.537" style="fill:#df3627;"/><rect x="254.133" y="116.899" width="4.094" height="6.17" style="fill:#df3627;"/><rect x="254.134" y="104.259" width="4.094" height="8.537" style="fill:#df3627;"/><path d="M306.333,93.326l4.124,0l0,-6.5c0,-1.138 -0.933,-2.037 -2.077,-2.037c-1.144,0 -2.047,0.899 -2.047,2.037l0,6.5Z" style="fill:#df3627;fill-rule:nonzero;"/><path d="M237.051,42.735l38.035,0l-0,-2.726l-40.142,-0.001l-7.574,28.037l40.822,0l-0,-2.755l-37.222,0l6.081,-22.555Z" style="fill:#df3627;fill-rule:nonzero;"/><path d="M316.961,131.427l2.77,-1.528l-0,-77.579l-2.77,-0l-0,79.107Z" style="fill:#df3627;fill-rule:nonzero;"/><path d="M306.558,110.404l0,22.032l2.739,-0l0,-22.032c0,-1.887 1.535,-3.415 3.432,-3.415c0.121,-0 0.017,0.008 0.137,0.008l0,-2.733l-0.137,0c-3.401,0 -6.171,2.755 -6.171,6.14" style="fill:#df3627;fill-rule:nonzero;"/><path d="M298.085,97.43l-4.124,-0l-0,-7.878c-0,-1.108 0.933,-2.036 2.047,-2.036c1.143,-0 2.077,0.928 2.077,2.036l-0,7.878Zm2.739,-7.878c-0,-2.635 -2.137,-4.762 -4.816,-4.762c-2.65,-0 -4.786,2.127 -4.786,4.762l-0,7.878l-12.043,-0l-0,2.726l33.687,-0l-0,-2.726l-12.042,-0l-0,-7.878Z" style="fill:#df3627;fill-rule:nonzero;"/><path d="M305.641,52.408l-9.633,-5.539l-0.053,-0.034l-9.552,5.543l0,4.705l-7.224,-0l0,2.756l9.964,-0l0,-5.901l6.835,-3.924l6.922,3.953l0,5.872l9.966,-0l0,-2.756l-7.225,-0l0,-4.675Z" style="fill:#df3627;fill-rule:nonzero;"/><path d="M281.588,93.326l4.125,0l-0,-6.5c-0,-1.138 -0.905,-2.037 -2.049,-2.037c-1.143,0 -2.076,0.899 -2.076,2.037l-0,6.5Z" style="fill:#df3627;fill-rule:nonzero;"/><path d="M302.21,132.436l-0,-22.032c-0,-3.385 -2.769,-6.141 -6.202,-6.141c-3.401,0 -6.171,2.756 -6.171,6.141l-0,22.032l2.739,0l-0,-22.032c-0,-1.888 1.536,-3.415 3.432,-3.415c1.896,0 3.462,1.527 3.462,3.415l-0,22.032l2.74,0Z" style="fill:#df3627;fill-rule:nonzero;"/><path d="M272.316,129.899l2.77,1.528l0,-79.107l-2.77,-0l0,77.579Z" style="fill:#df3627;fill-rule:nonzero;"/><path d="M298.777,57.475c0,-1.54 -1.234,-2.787 -2.769,-2.787c-1.506,-0 -2.74,1.247 -2.74,2.787c0,1.54 1.234,2.787 2.74,2.787c1.535,-0 2.769,-1.247 2.769,-2.787" style="fill:#df3627;fill-rule:nonzero;"/><rect x="281.588" y="72.149" width="4.125" height="8.537" style="fill:#df3627;"/><path d="M296.099,62.564c-2.98,0 -5.69,1.018 -7.827,2.726l-9.093,0l-0,2.755l10.115,0c1.748,-1.707 4.155,-2.755 6.805,-2.755c2.648,0 5.026,1.048 6.802,2.755l9.965,0l-0,-2.755l-8.94,0c-2.138,-1.708 -4.878,-2.726 -7.827,-2.726" style="fill:#df3627;fill-rule:nonzero;"/><path d="M300.824,80.686l-0,-6.5c-0,-2.636 -2.137,-4.792 -4.816,-4.792c-2.649,-0 -4.786,2.156 -4.786,4.792l-0,6.5l2.739,-0l-0,-6.5c-0,-1.138 0.933,-2.037 2.047,-2.037c1.143,-0 2.077,0.899 2.077,2.037l-0,6.5l2.739,-0Z" style="fill:#df3627;fill-rule:nonzero;"/><rect x="306.334" y="72.149" width="4.124" height="8.537" style="fill:#df3627;"/><path d="M282.793,136.525l-3.614,-2.054l-0,3.163l2.878,1.617l27.932,-0l2.877,-1.617l-0,-3.163l-3.613,2.054l-26.46,-0Z" style="fill:#df3627;fill-rule:nonzero;"/><path d="M395.336,188.761l19.625,0l0,6.024l-12.67,0l0,7.488l12.271,0l0,5.846l-12.271,0l0,11.652l-6.955,0l0,-31.01Z" style="fill:#59595c;fill-rule:nonzero;"/><path d="M424.862,214.898c0.516,0.503 1.203,0.753 2.06,0.753c1.211,-0 2.222,-0.421 3.034,-1.263c0.812,-0.842 1.218,-2.178 1.218,-4.009l0,-1.018c-0.797,0.442 -1.964,0.738 -3.499,0.886c-2.392,0.207 -3.588,1.136 -3.588,2.791c0,0.738 0.258,1.358 0.775,1.86m-4.696,3.633c-1.373,-1.27 -2.06,-2.953 -2.06,-5.051c0,-4.046 2.747,-6.394 8.24,-7.043c1.329,-0.147 2.333,-0.303 3.013,-0.466c0.678,-0.161 1.144,-0.346 1.395,-0.553c0.251,-0.207 0.377,-0.502 0.377,-0.886c0,-0.709 -0.363,-1.292 -1.086,-1.75c-0.724,-0.457 -1.794,-0.687 -3.212,-0.687c-2.451,-0 -4.947,0.871 -7.487,2.615l0,-5.539c1.093,-0.709 2.341,-1.292 3.744,-1.75c1.402,-0.457 2.916,-0.686 4.541,-0.686c3.248,-0 5.685,0.812 7.309,2.436c1.624,1.625 2.437,3.899 2.437,6.823l0,13.777l-5.316,-0l-0.178,-2.835c-0.649,1.122 -1.513,1.986 -2.591,2.592c-1.078,0.604 -2.341,0.907 -3.788,0.907c-2.185,-0 -3.965,-0.635 -5.338,-1.904" style="fill:#59595c;fill-rule:nonzero;"/><path d="M447.123,218.973c-1.832,-0.975 -3.242,-2.348 -4.23,-4.119c-0.991,-1.773 -1.485,-3.839 -1.485,-6.202c-0,-2.363 0.524,-4.445 1.573,-6.246c1.048,-1.802 2.488,-3.198 4.319,-4.187c1.831,-0.989 3.899,-1.484 6.202,-1.484c1.418,0 2.643,0.126 3.677,0.377c1.033,0.251 2.052,0.672 3.057,1.262l-0,5.892c-1.861,-1.27 -3.766,-1.905 -5.715,-1.905c-1.949,0 -3.5,0.561 -4.651,1.683c-1.152,1.123 -1.728,2.658 -1.728,4.608c-0,1.949 0.568,3.492 1.706,4.629c1.136,1.137 2.694,1.706 4.673,1.706c1.034,0 2,-0.112 2.902,-0.332c0.9,-0.222 1.867,-0.628 2.901,-1.219l-0,5.759c-0.945,0.414 -1.949,0.723 -3.012,0.93c-1.063,0.206 -2.348,0.31 -3.854,0.31c-2.392,0 -4.504,-0.487 -6.335,-1.462" style="fill:#59595c;fill-rule:nonzero;"/><path d="M466.238,218.066c-1.374,-1.58 -2.06,-3.906 -2.06,-6.978l0,-13.688l6.512,-0l0,12.847c0,3.042 1.196,4.562 3.588,4.562c1.299,-0 2.304,-0.398 3.013,-1.195c0.708,-0.798 1.063,-1.891 1.063,-3.278l0,-12.936l6.512,-0l0,22.371l-6.069,-0l0,-3.057c-0.709,1.182 -1.617,2.098 -2.725,2.747c-1.107,0.649 -2.385,0.974 -3.832,0.974c-2.628,-0 -4.629,-0.789 -6.002,-2.369" style="fill:#59595c;fill-rule:nonzero;"/><rect x="490.359" y="187.874" width="6.512" height="31.896" style="fill:#59595c;"/><path d="M502.94,212.505l-0,-10.056l-2.702,0l-0,-5.049l2.702,0l-0,-4.741l6.512,-1.507l-0,6.248l5.803,0l-0,5.049l-5.803,0l-0,9.126c-0,2.215 0.886,3.323 2.658,3.323c0.591,0 1.115,-0.051 1.573,-0.156c0.458,-0.102 0.982,-0.272 1.572,-0.508l-0,5.537c-0.857,0.236 -1.616,0.405 -2.281,0.509c-0.664,0.103 -1.41,0.155 -2.237,0.155c-5.198,0 -7.797,-2.643 -7.797,-7.93" style="fill:#59595c;fill-rule:nonzero;"/><path d="M527.216,220.082l-10.012,-22.682l7.354,-0l5.582,15.372l5.493,-15.372l7.31,-0l-8.063,18.96c-1.241,2.953 -2.363,5.39 -3.367,7.31c-1.005,1.919 -2.2,3.868 -3.589,5.848l-6.866,-0c2.451,-2.835 4.504,-5.981 6.158,-9.436" style="fill:#59595c;fill-rule:nonzero;"/><path d="M562.456,213.303c0.989,1.123 2.355,1.684 4.098,1.684c1.712,0 3.056,-0.561 4.031,-1.684c0.975,-1.122 1.462,-2.643 1.462,-4.562c0,-2.039 -0.495,-3.64 -1.484,-4.807c-0.99,-1.167 -2.356,-1.75 -4.098,-1.75c-1.713,0 -3.056,0.576 -4.031,1.727c-0.975,1.152 -1.462,2.733 -1.462,4.741c0,1.978 0.494,3.529 1.484,4.651m-2.525,5.648c-1.846,-0.989 -3.256,-2.377 -4.231,-4.164c-0.974,-1.787 -1.462,-3.832 -1.462,-6.135c0,-2.333 0.488,-4.401 1.462,-6.203c0.975,-1.8 2.377,-3.204 4.209,-4.209c1.831,-1.002 4.016,-1.505 6.556,-1.505c2.57,0 4.777,0.509 6.623,1.528c1.846,1.019 3.256,2.43 4.231,4.23c0.974,1.802 1.462,3.884 1.462,6.248c0,2.302 -0.488,4.333 -1.462,6.09c-0.975,1.758 -2.378,3.131 -4.209,4.12c-1.831,0.99 -4.017,1.484 -6.556,1.484c-2.57,0 -4.778,-0.494 -6.623,-1.484" style="fill:#59595c;fill-rule:nonzero;"/><path d="M586.578,189.537c1.505,-1.492 3.677,-2.238 6.511,-2.238c1.566,0 2.777,0.192 3.634,0.576l-0,5.448c-0.916,-0.353 -1.788,-0.53 -2.615,-0.53c-1.034,-0 -1.838,0.273 -2.414,0.819c-0.575,0.547 -0.865,1.322 -0.865,2.326l0,1.462l5.761,-0l-0,5.05l-5.76,-0l-0,17.321l-6.512,-0l-0,-17.321l-3.145,-0l-0,-5.05l3.144,-0l0,-1.374c0,-2.835 0.755,-4.998 2.26,-6.489" style="fill:#59595c;fill-rule:nonzero;"/><path d="M637.876,201.697l-7.796,12.803l-4.342,-0l-7.841,-12.892l-2.614,18.163l-6.866,-0l4.651,-31.01l4.342,-0l10.499,17.853l10.454,-17.853l4.342,-0l4.651,31.01l-6.866,-0l-2.614,-18.074Z" style="fill:#59595c;fill-rule:nonzero;"/><path d="M657.744,214.898c0.516,0.503 1.203,0.753 2.06,0.753c1.211,-0 2.222,-0.421 3.034,-1.263c0.812,-0.842 1.218,-2.178 1.218,-4.009l0,-1.018c-0.797,0.442 -1.964,0.738 -3.499,0.886c-2.392,0.207 -3.588,1.136 -3.588,2.791c0,0.738 0.258,1.358 0.775,1.86m-4.696,3.633c-1.373,-1.27 -2.06,-2.953 -2.06,-5.051c0,-4.046 2.747,-6.394 8.24,-7.043c1.329,-0.147 2.333,-0.303 3.013,-0.466c0.678,-0.161 1.144,-0.346 1.395,-0.553c0.251,-0.207 0.377,-0.502 0.377,-0.886c0,-0.709 -0.363,-1.292 -1.086,-1.75c-0.724,-0.457 -1.794,-0.687 -3.212,-0.687c-2.451,-0 -4.947,0.871 -7.487,2.615l0,-5.539c1.093,-0.709 2.341,-1.292 3.744,-1.75c1.402,-0.457 2.916,-0.686 4.541,-0.686c3.248,-0 5.685,0.812 7.309,2.436c1.624,1.625 2.437,3.899 2.437,6.823l-0,13.777l-5.316,-0l-0.178,-2.835c-0.649,1.122 -1.513,1.986 -2.591,2.592c-1.078,0.604 -2.341,0.907 -3.788,0.907c-2.185,-0 -3.965,-0.635 -5.338,-1.904" style="fill:#59595c;fill-rule:nonzero;"/><path d="M675.885,212.505l-0,-10.056l-2.702,0l-0,-5.049l2.702,0l-0,-4.741l6.512,-1.507l-0,6.248l5.803,0l-0,5.049l-5.803,0l-0,9.126c-0,2.215 0.886,3.323 2.658,3.323c0.591,0 1.115,-0.051 1.573,-0.156c0.458,-0.102 0.982,-0.272 1.572,-0.508l-0,5.537c-0.857,0.236 -1.616,0.405 -2.281,0.509c-0.664,0.103 -1.41,0.155 -2.237,0.155c-5.198,0 -7.797,-2.643 -7.797,-7.93" style="fill:#59595c;fill-rule:nonzero;"/><path d="M692.674,187.874l6.512,0l0,9.525l-0.354,3.057c0.709,-1.182 1.639,-2.097 2.791,-2.747c1.152,-0.649 2.436,-0.975 3.854,-0.975c2.746,0 4.813,0.791 6.202,2.37c1.388,1.581 2.082,3.907 2.082,6.978l0,13.688l-6.512,0l0,-12.846c0,-3.042 -1.27,-4.564 -3.81,-4.564c-1.3,0 -2.333,0.407 -3.101,1.219c-0.768,0.813 -1.152,1.898 -1.152,3.256l0,12.935l-6.512,0l0,-31.896Z" style="fill:#59595c;fill-rule:nonzero;"/><path d="M732.943,205.994c-0.207,-1.358 -0.62,-2.37 -1.241,-3.034c-0.62,-0.665 -1.55,-0.997 -2.79,-0.997c-2.275,-0 -3.693,1.343 -4.253,4.031l8.284,-0Zm-11.917,11.252c-2.156,-2.126 -3.234,-4.99 -3.234,-8.594c0,-2.333 0.465,-4.4 1.396,-6.202c0.93,-1.801 2.237,-3.204 3.92,-4.209c1.684,-1.003 3.618,-1.506 5.804,-1.506c3.573,-0 6.216,1.049 7.929,3.146c1.713,2.097 2.57,4.962 2.57,8.593l0,1.95l-14.885,-0c0.236,1.594 0.849,2.755 1.838,3.477c0.99,0.725 2.414,1.086 4.275,1.086c2.717,-0 5.213,-0.458 7.487,-1.373l0,5.537c-1.241,0.444 -2.444,0.768 -3.61,0.975c-1.168,0.206 -2.533,0.309 -4.098,0.309c-4.105,-0 -7.236,-1.062 -9.392,-3.189" style="fill:#59595c;fill-rule:nonzero;"/><path d="M744.062,197.4l6.069,-0l-0,3.189c0.679,-1.24 1.573,-2.193 2.681,-2.857c1.107,-0.665 2.339,-0.997 3.698,-0.997c3.81,-0 6.305,1.506 7.487,4.519c0.679,-1.417 1.602,-2.526 2.769,-3.323c1.166,-0.798 2.487,-1.196 3.964,-1.196c2.747,-0 4.814,0.791 6.203,2.37c1.387,1.58 2.082,3.906 2.082,6.978l-0,13.688l-6.513,-0l-0,-12.847c-0,-3.042 -1.27,-4.563 -3.809,-4.563c-1.123,-0 -2.053,0.406 -2.791,1.219c-0.738,0.812 -1.108,1.897 -1.108,3.256l-0,12.935l-6.512,-0l-0,-12.847c-0,-3.042 -1.27,-4.563 -3.809,-4.563c-1.123,-0 -2.054,0.406 -2.791,1.219c-0.739,0.812 -1.108,1.897 -1.108,3.256l-0,12.935l-6.512,-0l-0,-22.371Z" style="fill:#59595c;fill-rule:nonzero;"/><path d="M789.669,214.898c0.516,0.503 1.203,0.753 2.06,0.753c1.211,-0 2.222,-0.421 3.034,-1.263c0.812,-0.842 1.218,-2.178 1.218,-4.009l-0,-1.018c-0.797,0.442 -1.964,0.738 -3.499,0.886c-2.392,0.207 -3.588,1.136 -3.588,2.791c-0,0.738 0.258,1.358 0.775,1.86m-4.696,3.633c-1.373,-1.27 -2.06,-2.953 -2.06,-5.051c-0,-4.046 2.747,-6.394 8.24,-7.043c1.329,-0.147 2.333,-0.303 3.013,-0.466c0.678,-0.161 1.144,-0.346 1.395,-0.553c0.251,-0.207 0.377,-0.502 0.377,-0.886c-0,-0.709 -0.363,-1.292 -1.086,-1.75c-0.724,-0.457 -1.794,-0.687 -3.212,-0.687c-2.451,-0 -4.947,0.871 -7.487,2.615l-0,-5.539c1.093,-0.709 2.341,-1.292 3.744,-1.75c1.402,-0.457 2.916,-0.686 4.541,-0.686c3.248,-0 5.685,0.812 7.309,2.436c1.624,1.625 2.437,3.899 2.437,6.823l-0,13.777l-5.316,-0l-0.178,-2.835c-0.649,1.122 -1.513,1.986 -2.591,2.592c-1.078,0.604 -2.341,0.907 -3.788,0.907c-2.185,-0 -3.965,-0.635 -5.338,-1.904" style="fill:#59595c;fill-rule:nonzero;"/><path d="M807.809,212.505l-0,-10.056l-2.702,0l-0,-5.049l2.702,0l-0,-4.741l6.512,-1.507l-0,6.248l5.803,0l-0,5.049l-5.803,0l-0,9.126c-0,2.215 0.886,3.323 2.658,3.323c0.591,0 1.115,-0.051 1.573,-0.156c0.458,-0.102 0.982,-0.272 1.572,-0.508l-0,5.537c-0.857,0.236 -1.616,0.405 -2.281,0.509c-0.664,0.103 -1.41,0.155 -2.237,0.155c-5.198,0 -7.797,-2.643 -7.797,-7.93" style="fill:#59595c;fill-rule:nonzero;"/><path d="M824.599,197.4l6.512,0l-0,22.371l-6.512,0l-0,-22.371Zm0.532,-9.702c0.768,-0.768 1.683,-1.152 2.747,-1.152c1.033,0 1.926,0.384 2.68,1.152c0.753,0.768 1.129,1.669 1.129,2.702c-0,1.034 -0.384,1.934 -1.152,2.702c-0.768,0.769 -1.654,1.152 -2.657,1.152c-1.064,0 -1.979,-0.383 -2.747,-1.152c-0.768,-0.768 -1.152,-1.668 -1.152,-2.702c-0,-1.033 0.384,-1.934 1.152,-2.702" style="fill:#59595c;fill-rule:nonzero;"/><path d="M841.3,218.973c-1.832,-0.975 -3.242,-2.348 -4.23,-4.119c-0.991,-1.773 -1.485,-3.839 -1.485,-6.202c-0,-2.363 0.524,-4.445 1.573,-6.246c1.048,-1.802 2.488,-3.198 4.319,-4.187c1.831,-0.989 3.899,-1.484 6.202,-1.484c1.418,0 2.643,0.126 3.677,0.377c1.033,0.251 2.052,0.672 3.057,1.262l-0,5.892c-1.861,-1.27 -3.766,-1.905 -5.715,-1.905c-1.949,0 -3.5,0.561 -4.651,1.683c-1.152,1.123 -1.728,2.658 -1.728,4.608c-0,1.949 0.568,3.492 1.706,4.629c1.136,1.137 2.694,1.706 4.673,1.706c1.034,0 2,-0.112 2.902,-0.332c0.9,-0.222 1.867,-0.628 2.901,-1.219l-0,5.759c-0.945,0.414 -1.949,0.723 -3.012,0.93c-1.063,0.206 -2.348,0.31 -3.854,0.31c-2.392,0 -4.504,-0.487 -6.335,-1.462" style="fill:#59595c;fill-rule:nonzero;"/><path d="M861.588,219.904c-1.388,-0.354 -2.599,-0.871 -3.632,-1.551l0,-5.581c1.122,0.827 2.304,1.455 3.544,1.883c1.24,0.428 2.437,0.642 3.588,0.642c2.067,-0 3.102,-0.576 3.102,-1.728c0,-0.59 -0.201,-1.048 -0.599,-1.373c-0.399,-0.325 -1.203,-0.679 -2.414,-1.063l-2.348,-0.753c-1.654,-0.561 -2.91,-1.344 -3.765,-2.348c-0.858,-1.004 -1.286,-2.318 -1.286,-3.943c0,-1.358 0.333,-2.598 0.997,-3.721c0.665,-1.122 1.654,-2.008 2.968,-2.658c1.314,-0.65 2.902,-0.975 4.763,-0.975c2.451,-0 4.636,0.576 6.556,1.728l0,5.759c-1.034,-0.709 -2.06,-1.255 -3.078,-1.639c-1.02,-0.384 -2.135,-0.576 -3.345,-0.576c-0.798,-0 -1.455,0.17 -1.972,0.509c-0.516,0.34 -0.775,0.79 -0.775,1.352c0,0.56 0.162,0.989 0.487,1.284c0.325,0.296 0.856,0.547 1.595,0.753l2.525,0.709c2.155,0.62 3.706,1.477 4.652,2.569c0.945,1.093 1.417,2.526 1.417,4.297c0,2.038 -0.783,3.707 -2.347,5.006c-1.567,1.3 -3.751,1.949 -6.557,1.949c-1.329,-0 -2.687,-0.177 -4.076,-0.531" style="fill:#59595c;fill-rule:nonzero;"/><path d="M74.745,206.745l0,-17.983l-6.976,-0l0,17.828c0,4.186 -1.86,7.441 -6.666,7.441c-4.186,-0 -6.666,-2.17 -6.666,-7.441l0,-17.828l-6.976,-0l0,17.983c0,8.371 4.341,13.642 13.642,13.642c8.371,-0 13.642,-4.186 13.642,-13.642" style="fill:#59595c;fill-rule:nonzero;"/><path d="M195.664,213.876l-14.262,-0l-0,-7.286l12.712,-0l-0,-5.891l-12.712,-0l-0,-6.046l14.107,-0l-0,-5.891l-21.083,-0l-0,31.005l21.238,-0l-0,-5.891Z" style="fill:#59595c;fill-rule:nonzero;"/><path d="M112.106,219.767l-0,-31.005l-6.821,-0l-0,17.983l-17.053,-17.983l-3.875,-0l-0,31.005l6.821,-0l-0,-18.293l17.052,18.293l3.876,-0Z" style="fill:#59595c;fill-rule:nonzero;"/><path d="M211.631,194.653l3.721,-0c3.875,-0 5.736,1.55 5.736,4.341c0,2.945 -1.861,4.495 -5.736,4.495l-3.721,-0l0,-8.836Zm0,14.417l2.48,-0l4.496,5.891c3.101,4.186 5.426,5.581 9.922,5.426l0,-6.201c-1.861,-0 -3.256,-1.395 -5.426,-4.341l-1.24,-1.705c3.565,-1.55 6.511,-4.651 6.511,-9.301c0,-6.201 -4.961,-10.077 -12.867,-10.077l-10.697,-0l0,31.005l6.821,0l0,-10.697Z" style="fill:#59595c;fill-rule:nonzero;"/><rect x="122.028" y="188.762" width="6.976" height="31.005" style="fill:#59595c;"/><rect x="265.9" y="188.762" width="6.976" height="31.005" style="fill:#59595c;"/><path d="M151.792,209.07l-8.216,-20.308l-8.062,0l13.798,31.005l4.805,0l13.798,-31.005l-7.907,0l-8.216,20.308Z" style="fill:#59595c;fill-rule:nonzero;"/><path d="M321.788,219.766l0,-10.537l-11.423,-20.468l8.206,0l6.714,13.521l6.714,-13.521l8.205,0l-11.422,20.375l0,10.63l-6.994,0Z" style="fill:#59595c;fill-rule:nonzero;"/><path d="M289.478,219.766l0,-25.084l-9.978,0l0,-5.921l26.949,0l0,5.921l-9.977,0l-0,25.084l-6.994,0Z" style="fill:#59595c;fill-rule:nonzero;"/><path d="M246.505,220.359c-3.169,-0 -6.618,-0.746 -9.507,-2.47l0,-7.27c2.423,1.911 6.291,3.402 9.414,3.402c3.076,-0 4.614,-0.979 4.614,-3.076c0,-2.05 -1.678,-3.029 -3.962,-3.635l-3.309,-0.885c-4.8,-1.305 -7.223,-4.288 -7.223,-9.042c0,-5.825 4.986,-9.227 11.418,-9.227c2.982,-0 5.452,0.652 7.969,2.097l0,7.177c-2.284,-1.817 -4.754,-2.983 -8.109,-2.983c-2.237,-0 -4.521,0.886 -4.521,2.983c0,1.864 1.585,2.703 3.356,3.169l3.915,1.072c4.94,1.351 7.409,4.381 7.409,8.948c0.047,6.338 -4.986,9.74 -11.464,9.74" style="fill:#59595c;fill-rule:nonzero;"/><path d="M7.317,263.103c-0,5.825 3.309,9.787 8.901,9.787c5.546,-0 8.948,-3.868 8.948,-9.787c-0,-5.732 -3.215,-9.74 -8.948,-9.74c-5.732,-0 -8.901,4.008 -8.901,9.74m8.901,16.125c-9.414,-0 -16.218,-6.338 -16.218,-16.125c-0,-10.113 7.037,-16.078 16.218,-16.078c10.02,-0 16.265,6.711 16.265,16.078c-0,9.554 -6.478,16.125 -16.265,16.125" style="fill:#59595c;fill-rule:nonzero;"/><path d="M98.976,253.541l8.371,-0l-0,22.634c-0,3.565 -0.31,8.526 -2.325,11.781l7.286,-0c1.705,-3.411 2.015,-7.442 2.015,-12.248l-0,-28.059l-15.347,0l-0,5.891Z" style="fill:#59595c;fill-rule:nonzero;"/><path d="M85.954,247.65l-6.976,-0l-0,31.005l19.998,-0l-0,-5.891l-13.022,-0l-0,-25.114Z" style="fill:#59595c;fill-rule:nonzero;"/><path d="M199.742,247.65l-6.976,-0l-0,31.005l19.998,-0l-0,-5.891l-13.022,-0l-0,-25.114Z" style="fill:#59595c;fill-rule:nonzero;"/><path d="M294.461,265.632l-17.053,-17.983l-3.875,0l0,31.005l6.821,0l0,-18.293l17.052,18.293l3.876,0l0,-31.005l-6.821,0l0,17.983Z" style="fill:#59595c;fill-rule:nonzero;"/><path d="M144.243,265.477c-0,4.186 -1.86,7.441 -6.666,7.441c-4.186,0 -6.666,-2.17 -6.666,-7.441l-0,-17.828l-6.976,0l-0,17.983c-0,8.371 4.341,13.642 13.642,13.642c8.371,0 13.642,-4.185 13.642,-13.642l-0,-17.983l-6.976,0l-0,17.828Z" style="fill:#59595c;fill-rule:nonzero;"/><path d="M212.764,253.541l8.371,-0l-0,22.634c-0,3.565 -0.31,8.526 -2.325,11.781l7.286,-0c1.705,-3.411 2.015,-7.442 2.015,-12.248l-0,-28.059l-15.347,0l-0,5.891Z" style="fill:#59595c;fill-rule:nonzero;"/><path d="M172.147,272.919l-4.186,-0l0,-7.286l4.186,-0c3.411,-0 4.961,1.24 4.961,3.72c0,2.326 -1.55,3.566 -4.961,3.566m-4.186,-19.688l2.791,-0c3.1,-0 4.65,1.085 4.65,3.41c0,2.481 -1.55,3.565 -4.65,3.565l-2.791,0l0,-6.975Zm10.855,8.751c2.181,-1.085 3.718,-3.109 3.718,-6.427c0,-5.27 -3.876,-7.905 -10.697,-7.905l-11.007,-0l0,31.005l12.247,-0c6.976,-0 11.317,-2.325 11.317,-8.683c0,-3.935 -1.826,-6.849 -5.578,-7.99" style="fill:#59595c;fill-rule:nonzero;"/><path d="M254.897,267.626l-4.031,-10.675l-4.074,10.675l8.105,-0Zm-6.643,-19.976l5.27,-0l13.51,31.005l-7.974,-0l-2.038,-5.36l-12.401,-0l-2.037,5.36l-7.973,-0l13.643,-31.005Z" style="fill:#59595c;fill-rule:nonzero;"/><path d="M328.068,267.626l-4.031,-10.675l-4.074,10.675l8.105,-0Zm-6.643,-19.976l5.27,-0l13.51,31.005l-7.973,-0l-2.038,-5.36l-12.402,-0l-2.037,5.36l-7.973,-0l13.643,-31.005Z" style="fill:#59595c;fill-rule:nonzero;"/><path d="M40.638,278.628l0,-31.005l19.629,0l0,5.875l-12.635,0l0,7.646l12.262,0l0,5.828l-12.262,0l0,11.656l-6.994,0Z" style="fill:#59595c;fill-rule:nonzero;"/><path d="M452.224,40.01l-56.887,-0l-0,89.889l20.161,-0l-0,-33.773l35.57,-0l-0,-16.95l-35.57,-0l-0,-21.702l36.726,-0l-0,-17.464Z" style="fill:#59595c;fill-rule:nonzero;"/><path d="M547.147,40.01l-30.315,51.753l-30.424,-51.753l-12.585,-0l-13.483,89.889l19.904,-0l7.602,-52.612l22.704,37.331l12.584,-0l22.599,-37.16l7.578,52.441l19.904,-0l-13.483,-89.889l-12.585,-0Z" style="fill:#59595c;fill-rule:nonzero;"/><path d="M647.281,57.474l-0,-17.464l-56.887,-0l-0,89.889l20.161,-0l-0,-33.773l35.57,-0l-0,-16.95l-35.57,-0l-0,-21.702l36.726,-0Z" style="fill:#59595c;fill-rule:nonzero;"/></g></svg>