<?xml version="1.0" encoding="UTF-8" standalone="no"?>
<svg
   xmlns:dc="http://purl.org/dc/elements/1.1/"
   xmlns:cc="http://creativecommons.org/ns#"
   xmlns:rdf="http://www.w3.org/1999/02/22-rdf-syntax-ns#"
   xmlns:svg="http://www.w3.org/2000/svg"
   xmlns="http://www.w3.org/2000/svg"
   xmlns:sodipodi="http://sodipodi.sourceforge.net/DTD/sodipodi-0.dtd"
   xmlns:inkscape="http://www.inkscape.org/namespaces/inkscape"
   width="1360"
   height="1400"
   viewBox="0 0 1360 1400"
   version="1.1"
   id="svg46"
   sodipodi:docname="Logo_DLR.svg"
   inkscape:version="1.0.1 (3bc2e813f5, 2020-09-07)"
   inkscape:export-filename="C:\Users\SBO\Documents\Projects\Qompiler\GitHub\QompilerBlog\assets\images\Logos\Logo_DLR.png"
   inkscape:export-xdpi="96"
   inkscape:export-ydpi="96">
  <metadata
     id="metadata50">
    <rdf:RDF>
      <cc:Work
         rdf:about="">
        <dc:format>image/svg+xml</dc:format>
        <dc:type
           rdf:resource="http://purl.org/dc/dcmitype/StillImage" />
        <dc:title></dc:title>
      </cc:Work>
    </rdf:RDF>
  </metadata>
  <sodipodi:namedview
     pagecolor="#ffffff"
     bordercolor="#666666"
     borderopacity="1"
     objecttolerance="10"
     gridtolerance="10"
     guidetolerance="10"
     inkscape:pageopacity="0"
     inkscape:pageshadow="2"
     inkscape:window-width="3200"
     inkscape:window-height="1712"
     id="namedview48"
     showgrid="false"
     inkscape:zoom="0.46267189"
     inkscape:cx="153.93427"
     inkscape:cy="708.62859"
     inkscape:window-x="3192"
     inkscape:window-y="-8"
     inkscape:window-maximized="1"
     inkscape:current-layer="svg46"
     inkscape:document-rotation="0" />
  <defs
     id="defs4">
    <style
       id="style2">.a{fill:#fff;}</style>
  </defs>
  <rect
     style="fill:#ffffff;stroke:#000000;stroke-width:0"
     id="rect850"
     width="1510.7899"
     height="1497.8217"
     x="-12.968153"
     y="-10.806794" />
  <path
     class="a"
     d="m 439.16815,669.9563 h -76.5604 l 55.42867,-55.2669 h 76.56039 z m -116.37505,0 h -78.54641 l 55.42867,-55.2669 h 78.55091 z m -98.45596,98.05157 v -69.96879 h 69.97779 z m -97.84039,-98.05157 55.42867,-55.2669 h 77.62978 l -55.42867,55.2669 z m 270.5652,-152.58159 v 69.0342 H 327.866 Z m 28.01987,69.0342 V 449.56265 L 288.03788,586.40891 H 170.44067 L 58.356689,698.20981 H 196.29929 V 835.36163 L 333.9723,698.03908 H 450.64839 L 562.57961,586.39093 Z"
     id="path6"
     style="fill:#000000;fill-opacity:1;stroke-width:4.49324" />
  <g
     transform="matrix(4.4932448,0,0,4.4932448,334.74065,780.52607)"
     id="g10"
     style="fill:#000000;fill-opacity:1">
    <path
       class="a"
       d="m 367.878,481.632 h 2.011 a 5.749,5.749 0 0 0 4.123,-1.666 6.95,6.95 0 0 0 0,-9.348 5.8,5.8 0 0 0 -4.123,-1.632 h -2.011 z M 364.3,466.1 h 4.907 a 13.106,13.106 0 0 1 7.259,1.836 7.116,7.116 0 0 1 2.283,2.787 11.008,11.008 0 0 1 0.818,4.555 10.78,10.78 0 0 1 -0.818,4.487 7.337,7.337 0 0 1 -2.283,2.855 9.429,9.429 0 0 1 -3.306,1.462 18.284,18.284 0 0 1 -3.953,0.442 H 364.3 Z"
       transform="translate(-364.3,-466.096)"
       id="path8"
       style="fill:#000000;fill-opacity:1" />
  </g>
  <path
     class="a"
     d="m 420.63802,780.53504 h 16.2296 v 69.79806 h 31.23703 v 12.981 h -47.46663 z"
     id="path12"
     style="fill:#000000;fill-opacity:1;stroke-width:4.49324" />
  <path
     class="a"
     d="m 495.05512,815.96877 h 5.33798 a 45.121164,45.121164 0 0 0 6.29054,-0.44933 18.345918,18.345918 0 0 0 5.36044,-1.5277 9.7952733,9.7952733 0 0 0 3.98103,-3.51372 12.037402,12.037402 0 0 0 1.37942,-6.11079 11.655477,11.655477 0 0 0 -1.37942,-6.11083 10.033415,10.033415 0 0 0 -3.98103,-3.20818 15.39835,15.39835 0 0 0 -5.36044,-1.37493 c -2.14327,0 -4.13378,-0.15282 -6.29054,-0.15282 h -5.36044 z m -16.22958,-35.43373 h 17.45625 c 4.43932,0 8.88314,0 13.32247,0.15282 a 43.584473,43.584473 0 0 1 12.24858,2.44434 17.901087,17.901087 0 0 1 9.03591,6.56912 24.205108,24.205108 0 0 1 3.36994,13.28653 18.871627,18.871627 0 0 1 -16.68791,19.24454 v 0.30555 a 7.7553402,7.7553402 0 0 1 5.36043,3.05542 22.430277,22.430277 0 0 1 3.21718,5.49971 l 12.86414,32.37833 h -17.91455 l -9.64699,-25.8137 a 16.207133,16.207133 0 0 0 -3.82826,-6.73986 12.419328,12.419328 0 0 0 -7.35094,-1.83324 h -5.20768 v 34.36434 h -16.07682 v -82.91386 z"
     id="path14"
     style="fill:#000000;fill-opacity:1;stroke-width:4.49324" />
  <g
     transform="matrix(4.4932448,0,0,4.4932448,595.34884,774.27146)"
     id="g44"
     style="fill:#000000;fill-opacity:1">
    <path
       class="a"
       d="m 538.112,474.628 h 1.261 a 4.558,4.558 0 0 0 2.42,-0.578 2.363,2.363 0 0 0 0.988,-2.175 3.218,3.218 0 0 0 -0.273,-1.36 2.131,2.131 0 0 0 -0.75,-0.884 4.492,4.492 0 0 0 -2.42,-0.646 h -1.261 v 5.643 z M 534.5,466.1 h 4.532 a 10.32,10.32 0 0 1 5.18,1.122 c 1.465,0.782 2.215,2.277 2.249,4.453 a 5.159,5.159 0 0 1 -1.976,4.521 8.277,8.277 0 0 1 -4.907,1.36 h -1.5 v 7 H 534.5 Z"
       transform="translate(-534.5,-464.702)"
       id="path16"
       style="fill:#000000;fill-opacity:1" />
    <path
       class="a"
       d="m 578,479.64 h 3.067 v 3.093 h 0.034 a 4.547,4.547 0 0 1 1.125,-2.209 3.219,3.219 0 0 1 2.488,-1.224 5.832,5.832 0 0 1 1.056,0.1 v 3.569 a 3.263,3.263 0 0 0 -1.533,-0.272 2.2,2.2 0 0 0 -1.6,0.578 3.612,3.612 0 0 0 -0.852,1.462 7.371,7.371 0 0 0 -0.307,1.8 c -0.034,0.612 -0.034,1.19 -0.034,1.7 v 5 H 578 Z"
       transform="translate(-563.176,-473.419)"
       id="path18"
       style="fill:#000000;fill-opacity:1" />
    <path
       class="a"
       d="m 607.678,486.164 a 6.6,6.6 0 0 0 0.068,0.816 6.342,6.342 0 0 0 0.136,0.85 5.059,5.059 0 0 0 0.511,1.53 2.848,2.848 0 0 0 1.022,1.088 2.624,2.624 0 0 0 1.6,0.442 2.915,2.915 0 0 0 1.67,-0.442 3.133,3.133 0 0 0 1.022,-1.088 5.394,5.394 0 0 0 0.511,-1.53 13.174,13.174 0 0 0 0.136,-1.666 4.833,4.833 0 0 0 -0.818,-2.821 3,3 0 0 0 -2.522,-1.224 2.781,2.781 0 0 0 -2.454,1.258 4.612,4.612 0 0 0 -0.886,2.787 m -3.578,0.442 a 7.087,7.087 0 0 1 2.011,-5.3 6.912,6.912 0 0 1 4.907,-1.9 6.74,6.74 0 0 1 4.941,1.9 7.312,7.312 0 0 1 1.977,5.3 7.176,7.176 0 0 1 -1.806,4.963 6.688,6.688 0 0 1 -5.112,2.074 6.5,6.5 0 0 1 -5.078,-2.074 7.047,7.047 0 0 1 -1.84,-4.963"
       transform="translate(-580.382,-473.485)"
       id="path20"
       style="fill:#000000;fill-opacity:1" />
    <path
       class="a"
       d="m 649.949,463.1 h 3.442 v 3.365 h -3.442 z m -2.079,22.6 a 2.364,2.364 0 0 0 1.772,-0.544 3.96,3.96 0 0 0 0.341,-2.039 v -14.14 h 3.442 V 483.6 a 8.2,8.2 0 0 1 -0.136,1.53 5.627,5.627 0 0 1 -0.579,1.6 3.706,3.706 0 0 1 -1.193,1.224 4.492,4.492 0 0 1 -2.113,0.51 6.684,6.684 0 0 1 -1.7,-0.2 z"
       transform="translate(-609.124,-462.726)"
       id="path22"
       style="fill:#000000;fill-opacity:1" />
    <path
       class="a"
       d="m 682.333,485.113 a 3.911,3.911 0 0 0 -0.716,-2.243 2.443,2.443 0 0 0 -2.079,-0.952 2.889,2.889 0 0 0 -2.181,0.918 4.139,4.139 0 0 0 -0.886,2.311 h 5.861 z m 2.317,7.376 a 8.854,8.854 0 0 1 -4.532,1.088 c -4.566,-0.068 -6.85,-2.447 -6.918,-7.07 a 8.244,8.244 0 0 1 1.534,-5.1 5.618,5.618 0 0 1 4.6,-2.107 c 2.419,0.034 4.089,0.782 5.009,2.311 a 11.706,11.706 0 0 1 1.295,5.915 h -9.133 a 3.584,3.584 0 0 0 1.159,2.515 3.8,3.8 0 0 0 2.624,0.918 5.912,5.912 0 0 0 2.351,-0.442 11.18,11.18 0 0 0 2.045,-0.952 v 2.923 z"
       transform="translate(-625.934,-473.419)"
       id="path24"
       style="fill:#000000;fill-opacity:1" />
    <path
       class="a"
       d="m 719.2,462 h 3.408 v 11.659 h 0.068 l 4.089,-5.439 h 4.055 l -4.907,6.084 5.521,7.512 h -4.362 l -4.4,-6.594 h -0.068 v 6.594 H 719.2 Z"
       transform="translate(-656.258,-462)"
       id="path26"
       style="fill:#000000;fill-opacity:1" />
    <g
       transform="translate(76.164,0.68)"
       id="g42"
       style="fill:#000000;fill-opacity:1">
      <path
         class="a"
         d="M 760.556,475.424 H 758 v -2.583 h 2.522 v -2.719 L 763.964,469 v 3.875 h 3.067 v 2.583 h -3.067 v 6.356 a 2.752,2.752 0 0 0 0.341,1.53 1.3,1.3 0 0 0 1.295,0.714 3.052,3.052 0 0 0 1.568,-0.374 l 0.1,2.787 a 9.054,9.054 0 0 1 -2.556,0.306 q -4.141,-0.1 -4.192,-4.385 v -6.968 z"
         transform="translate(-758,-467.3)"
         id="path28"
         style="fill:#000000;fill-opacity:1" />
      <path
         class="a"
         d="M 790.822,475.424 H 788.3 v -2.583 h 2.522 v -2.719 L 794.264,469 v 3.875 h 3.067 v 2.583 h -3.067 v 6.356 a 3.076,3.076 0 0 0 0.341,1.53 1.3,1.3 0 0 0 1.3,0.714 3.052,3.052 0 0 0 1.568,-0.374 l 0.1,2.787 a 9.057,9.057 0 0 1 -2.556,0.306 q -4.14,-0.1 -4.191,-4.385 z"
         transform="translate(-777.974,-467.3)"
         id="path30"
         style="fill:#000000;fill-opacity:1" />
      <path
         class="a"
         d="m 822.9,479.64 h 3.067 v 3.093 H 826 a 4.55,4.55 0 0 1 1.125,-2.209 3.219,3.219 0 0 1 2.488,-1.224 5.834,5.834 0 0 1 1.056,0.1 v 3.569 a 3.263,3.263 0 0 0 -1.534,-0.272 2.195,2.195 0 0 0 -1.6,0.578 3.61,3.61 0 0 0 -0.852,1.462 7.362,7.362 0 0 0 -0.307,1.8 c -0.034,0.612 -0.034,1.19 -0.034,1.7 v 5 H 822.9 Z"
         transform="translate(-800.783,-474.099)"
         id="path32"
         style="fill:#000000;fill-opacity:1" />
      <path
         class="a"
         d="m 860.93,467.059 h -2.965 V 464 h 2.965 z m -7.225,12.169 a 1.348,1.348 0 0 0 0.648,1.258 2.722,2.722 0 0 0 1.533,0.442 2.812,2.812 0 0 0 2.42,-1.224 4.783,4.783 0 0 0 0.716,-2.821 h -2.079 a 1.892,1.892 0 0 0 -0.613,0.068 6.85,6.85 0 0 0 -1.261,0.306 2.518,2.518 0 0 0 -0.954,0.714 1.8,1.8 0 0 0 -0.409,1.258 M 852.513,464 h 2.965 v 3.059 h -2.965 z m -0.681,6.254 a 10.807,10.807 0 0 1 4.6,-1.02 c 3.851,-0.068 5.759,1.87 5.691,5.745 v 1.734 c 0,1.326 0.034,2.447 0.068,3.4 0.034,1.02 0.068,2.04 0.136,3.059 h -3.033 a 16.439,16.439 0 0 1 -0.136,-2.039 h -0.034 a 4.1,4.1 0 0 1 -1.7,1.7 4.577,4.577 0 0 1 -2.385,0.646 5.222,5.222 0 0 1 -3.169,-1.054 3.579,3.579 0 0 1 -1.465,-2.991 4.269,4.269 0 0 1 0.647,-2.481 3.535,3.535 0 0 1 1.6,-1.394 6.753,6.753 0 0 1 2.181,-0.646 17.331,17.331 0 0 1 2.249,-0.136 h 1.908 a 3.079,3.079 0 0 0 -0.716,-2.312 3.232,3.232 0 0 0 -2.249,-0.646 6.42,6.42 0 0 0 -4.055,1.5 z"
         transform="translate(-818.912,-464)"
         id="path34"
         style="fill:#000000;fill-opacity:1" />
      <path
         class="a"
         d="m 900.338,490.517 a 2.583,2.583 0 0 0 2.317,-1.258 5.594,5.594 0 0 0 0.682,-2.957 6.072,6.072 0 0 0 -0.682,-2.991 2.455,2.455 0 0 0 -2.215,-1.258 2.5,2.5 0 0 0 -2.386,1.36 5.792,5.792 0 0 0 -0.682,2.991 5.232,5.232 0 0 0 0.75,2.753 3.68,3.68 0 0 0 0.92,0.986 2.493,2.493 0 0 0 1.3,0.374 m 6.475,-10.877 v 12.3 c 0,0.442 0,0.884 -0.034,1.36 a 9.02,9.02 0 0 1 -0.238,1.326 5.639,5.639 0 0 1 -1.125,2.311 4.6,4.6 0 0 1 -2.113,1.564 8.393,8.393 0 0 1 -3.442,0.646 12.539,12.539 0 0 1 -4.567,-0.918 l 0.307,-3.025 a 11.5,11.5 0 0 0 1.942,0.816 7.733,7.733 0 0 0 1.908,0.408 4.238,4.238 0 0 0 2.249,-0.51 3.32,3.32 0 0 0 1.192,-1.292 5.655,5.655 0 0 0 0.477,-1.734 c 0.034,-0.612 0.068,-1.19 0.068,-1.8 h -0.068 a 3.433,3.433 0 0 1 -1.533,1.5 4.763,4.763 0 0 1 -2.556,0.646 4.526,4.526 0 0 1 -4.124,-2.107 8.477,8.477 0 0 1 -1.261,-4.759 8.775,8.775 0 0 1 1.329,-4.793 4.82,4.82 0 0 1 4.26,-2.277 4.568,4.568 0 0 1 4.055,2.175 h 0.034 v -1.87 z"
         transform="translate(-847.585,-474.099)"
         id="path36"
         style="fill:#000000;fill-opacity:1" />
      <path
         class="a"
         d="m 950.267,485.113 a 3.911,3.911 0 0 0 -0.716,-2.243 2.465,2.465 0 0 0 -2.113,-0.952 2.889,2.889 0 0 0 -2.181,0.918 3.676,3.676 0 0 0 -0.852,2.311 h 5.861 z m 2.283,7.376 a 8.853,8.853 0 0 1 -4.532,1.088 c -4.567,-0.068 -6.85,-2.447 -6.918,-7.07 a 8.245,8.245 0 0 1 1.534,-5.1 5.618,5.618 0 0 1 4.6,-2.107 c 2.42,0.034 4.089,0.782 5.009,2.311 a 11.7,11.7 0 0 1 1.3,5.915 h -9.133 a 3.452,3.452 0 0 0 1.158,2.515 3.8,3.8 0 0 0 2.624,0.918 6.031,6.031 0 0 0 2.352,-0.442 11.178,11.178 0 0 0 2.044,-0.952 v 2.923 z"
         transform="translate(-878.703,-474.099)"
         id="path38"
         style="fill:#000000;fill-opacity:1" />
      <path
         class="a"
         d="m 987.034,479.64 h 3.066 v 3.093 h 0.034 a 4.548,4.548 0 0 1 1.125,-2.209 3.22,3.22 0 0 1 2.488,-1.224 5.835,5.835 0 0 1 1.057,0.1 v 3.569 a 3.264,3.264 0 0 0 -1.534,-0.272 2.2,2.2 0 0 0 -1.6,0.578 3.611,3.611 0 0 0 -0.852,1.462 7.368,7.368 0 0 0 -0.307,1.8 c -0.034,0.612 -0.068,1.19 -0.068,1.7 v 5 H 987 v -13.6 z"
         transform="translate(-908.961,-474.099)"
         id="path40"
         style="fill:#000000;fill-opacity:1" />
    </g>
  </g>
  <text
     xml:space="preserve"
     style="font-style:normal;font-weight:normal;font-size:73.8445px;line-height:1.25;font-family:sans-serif;fill:#000000;fill-opacity:1;stroke:none;stroke-width:1.84612"
     x="56.059883"
     y="220.23621"
     id="text854"><tspan
       sodipodi:role="line"
       id="tspan852"
       x="56.059883"
       y="220.23621"
       style="font-style:normal;font-variant:normal;font-weight:normal;font-stretch:normal;font-size:73.8445px;font-family:sans-serif;-inkscape-font-specification:'sans-serif, Normal';font-variant-ligatures:normal;font-variant-caps:normal;font-variant-numeric:normal;font-variant-east-asian:normal;stroke-width:1.84612">Supported by:</tspan></text>
</svg>
